<?xml version="1.0" encoding="utf-8"?>
<!-- Generator: Adobe Illustrator 25.2.3, SVG Export Plug-In . SVG Version: 6.00 Build 0)  -->
<svg version="1.1" id="Layer_1" xmlns="http://www.w3.org/2000/svg" xmlns:xlink="http://www.w3.org/1999/xlink" x="0px" y="0px"
	 viewBox="0 0 1280 1440" style="enable-background:new 0 0 1280 1440;" xml:space="preserve">
<style type="text/css">
	.st0{fill:#555555;}
	.st1{font-family:'Raleway-Light';}
	.st2{font-size:21.7036px;}
	.st3{fill:#60C8EF;}
	.st4{fill:url(#SVGID_1_);}
	.st5{fill:url(#SVGID_2_);}
	.st6{fill:url(#SVGID_3_);}
	.st7{fill:#414042;}
	.st8{font-size:21.0834px;}
	.st9{fill:url(#SVGID_4_);}
	.st10{fill:url(#SVGID_5_);}
	.st11{fill:url(#SVGID_6_);}
	.st12{fill:url(#SVGID_7_);}
	.st13{fill:url(#SVGID_8_);}
	.st14{fill:url(#SVGID_9_);}
	.st15{fill:#58595B;}
	.st16{font-size:37.8503px;}
	.st17{fill:url(#SVGID_10_);}
	.st18{fill:url(#SVGID_11_);}
	.st19{fill:url(#SVGID_12_);}
	.st20{fill:url(#SVGID_13_);}
	.st21{fill:url(#SVGID_14_);}
	.st22{fill:url(#SVGID_15_);}
	.st23{fill:url(#SVGID_16_);}
</style>
<g>
	<g>
		<g>
			<text transform="matrix(1 0 0 1 435.3626 929.1962)" class="st0 st1 st2">Hawaii State Trade Expansion Program</text>
			<g>
				<path class="st0" d="M615.12,841.68c-0.23-0.31-1.05-0.89-2.44-1.74c-1.39-0.85-3.14-1.74-5.23-2.67
					c-2.09-0.93-4.38-1.74-6.86-2.44c-2.48-0.7-4.96-1.05-7.44-1.05c-6.82,0-10.23,2.29-10.23,6.86c0,1.39,0.37,2.56,1.1,3.49
					c0.74,0.93,1.82,1.76,3.25,2.5c1.43,0.74,3.23,1.41,5.4,2.03c2.17,0.62,4.69,1.32,7.55,2.09c3.95,1.09,7.51,2.27,10.69,3.54
					c3.18,1.28,5.87,2.87,8.08,4.76c2.21,1.9,3.91,4.2,5.11,6.91c1.2,2.71,1.8,5.97,1.8,9.76c0,4.65-0.87,8.58-2.61,11.8
					c-1.74,3.22-4.05,5.81-6.91,7.79c-2.87,1.98-6.16,3.41-9.88,4.3c-3.72,0.89-7.55,1.34-11.5,1.34c-3.02,0-6.12-0.23-9.3-0.7
					c-3.18-0.46-6.28-1.14-9.3-2.03c-3.02-0.89-5.95-1.96-8.77-3.2c-2.83-1.24-5.44-2.67-7.84-4.3l8.37-16.62
					c0.31,0.39,1.32,1.12,3.02,2.21c1.7,1.09,3.82,2.17,6.33,3.25c2.52,1.09,5.33,2.05,8.43,2.91c3.1,0.85,6.24,1.28,9.41,1.28
					c6.74,0,10.11-2.05,10.11-6.16c0-1.55-0.5-2.83-1.51-3.83c-1.01-1.01-2.4-1.92-4.18-2.73c-1.78-0.81-3.89-1.57-6.33-2.27
					c-2.44-0.7-5.1-1.47-7.96-2.32c-3.8-1.16-7.09-2.42-9.88-3.78c-2.79-1.35-5.1-2.92-6.91-4.71c-1.82-1.78-3.18-3.83-4.07-6.16
					c-0.89-2.32-1.34-5.03-1.34-8.13c0-4.34,0.81-8.17,2.44-11.51c1.63-3.33,3.83-6.14,6.62-8.42c2.79-2.28,6.02-4.01,9.7-5.17
					c3.68-1.16,7.57-1.74,11.68-1.74c2.87,0,5.69,0.27,8.48,0.81c2.79,0.54,5.46,1.24,8.02,2.09c2.56,0.85,4.94,1.82,7.15,2.91
					c2.21,1.09,4.24,2.17,6.1,3.25L615.12,841.68z"/>
				<path class="st0" d="M699.62,833.87h-25.6v67.07h-19.43v-67.07h-25.71v-17.06h70.74V833.87z"/>
				<path class="st0" d="M769.59,883.88v17.06h-59.13v-84.14h59.13v17.06h-39.7v16.35h33.18v15.76h-33.18v17.89H769.59z"/>
				<path class="st0" d="M781.24,900.94v-84.14h35.91c4.03,0,7.72,0.83,11.08,2.49c3.36,1.66,6.24,3.83,8.65,6.52
					c2.41,2.69,4.31,5.73,5.69,9.12c1.38,3.4,2.07,6.83,2.07,10.31c0,3.71-0.65,7.27-1.96,10.67c-1.3,3.4-3.12,6.44-5.45,9.12
					c-2.33,2.69-5.15,4.82-8.47,6.4c-3.32,1.58-6.99,2.37-11.02,2.37h-17.06v27.14H781.24z M800.67,856.86h15.88
					c2.29,0,4.27-0.99,5.93-2.96c1.66-1.97,2.49-4.86,2.49-8.65c0-1.97-0.26-3.67-0.77-5.1c-0.52-1.42-1.21-2.61-2.07-3.56
					c-0.87-0.95-1.86-1.64-2.96-2.07c-1.11-0.43-2.21-0.65-3.32-0.65h-15.17V856.86z"/>
			</g>
			<g>
				<path class="st3" d="M558.48,801.48c-0.67,2.3-1.31,4.63-1.92,6.99h4.33c1.34-5.12,2.83-10.09,4.46-14.89
					C563,796.19,560.71,798.83,558.48,801.48z"/>
				<path class="st3" d="M769.56,767.95h-0.04c-3.19-3.71-6.53-7.29-10.03-10.7c-15.57-15.18-34.1-27.24-54.2-35.26
					c-11.19-4.48-22.86-7.69-34.72-9.61c-4.71,2.46-9.38,5.02-14.01,7.7l0,0c0.93,0.32,1.88,0.61,2.8,0.94l2.73,1.17
					c0.45,0.2,0.91,0.38,1.36,0.59l1.32,0.69l2.64,1.37l2.54,1.57l1.27,0.78c0.42,0.26,0.81,0.58,1.22,0.86l2.43,1.75
					c0.81,0.58,1.56,1.26,2.34,1.88c0.76,0.65,1.57,1.24,2.3,1.94l2.2,2.06l1.1,1.03l1.04,1.1c2.14,2.2,4.18,4.51,6.13,6.91
					c-1.66,0.31-3.33,0.6-5.01,0.87c-6.14,0.99-12.35,1.78-18.58,2.41c-1.92-6.86-4.13-13.69-7.19-20.35
					c-1.09-2.34-2.31-4.67-3.76-6.93c-2.07,1.21-4.13,2.44-6.18,3.68c1.15,1.95,2.17,4.08,3.08,6.27
					c2.37,5.74,4.15,11.87,5.67,18.08c-5.32,0.41-10.65,0.72-15.99,0.93c-5.99,0.22-12,0.32-18,0.29c0.01-0.03,0.02-0.06,0.02-0.09
					c1.06-3.8,2.22-7.57,3.54-11.25c-2.41,1.7-4.8,3.43-7.17,5.19c-0.42,1.6-0.82,3.21-1.2,4.82c-0.1,0.42-0.19,0.85-0.28,1.27
					c-2.1-0.04-4.19-0.11-6.29-0.19c-1.66,1.29-3.31,2.59-4.94,3.91c0.68,0.06,1.36,0.12,2.05,0.18c2.71,0.33,5.42,0.64,8.14,0.9
					c-1,4.82-1.87,9.66-2.63,14.5c-1.25,6.99-2.36,14.41-3.33,22.21c-6.04-0.19-12.07-0.49-18.1-0.92
					c-8.25-0.81-15.91-1.81-22.92-2.97c-1.15,1.22-2.29,2.44-3.41,3.67c8.31,1.44,17.34,2.63,26.91,3.54
					c5.63,0.68,11.27,1.25,16.92,1.73c-0.45,3.91-0.86,7.91-1.24,11.98h4.18c0.37-3.96,0.77-7.85,1.21-11.65
					c8.84,0.67,17.7,1.11,26.56,1.35c7.87,0.19,15.75,0.23,23.64,0.1c0.31,3.4,0.59,6.8,0.85,10.2h10.73c-0.39-3.5-0.81-7-1.27-10.5
					c10.21-0.39,20.42-1.11,30.62-2.24c3.02-0.35,6.03-0.73,9.04-1.15c0.8,2.5,1.56,5,2.27,7.53c0.53,1.99,1.12,3.96,1.59,5.96
					l0.1,0.41h11.46l-0.9-3.27c-0.57-2.08-1.25-4.13-1.87-6.2c-0.65-2.06-1.33-4.1-2.05-6.14c4.22-0.78,8.43-1.68,12.64-2.76
					c4.13-1.08,8.25-2.3,12.4-3.93c4.08,7.15,7.59,14.62,10.54,22.29h12.23c-3.65-9.38-8.07-18.46-13.26-27.07
					c0.82-0.55,1.64-1.14,2.46-1.81c0.44-0.36,0.88-0.75,1.31-1.17c7.12,9.32,13.16,19.42,18.01,30.06h12.67
					c-6.57-14.67-15.27-28.34-25.7-40.48C769.56,767.97,769.56,767.96,769.56,767.95z M642.03,791.51
					c-8.64,0.22-17.28,0.23-25.93,0.04c0.91-7.24,1.94-14.16,3.08-20.69c1.03-5.27,2.17-10.5,3.48-15.69
					c6.44,0.55,12.9,0.94,19.36,1.2c5.91,0.22,11.82,0.32,17.74,0.29c2.29,11.11,3.88,22.42,5.11,33.77
					C657.28,790.94,649.66,791.3,642.03,791.51z M689.72,731.89l-1.18-1.15l-1.24-1.09l-2.49-2.17c-0.83-0.73-1.74-1.37-2.6-2.05
					c-0.6-0.45-1.19-0.91-1.79-1.36c5.58,2.04,11.01,4.5,16.22,7.34c4.59,2.49,9.01,5.28,13.26,8.31c-1.38,0.49-2.81,0.95-4.25,1.37
					c-2,0.59-4.04,1.12-6.1,1.62C696.51,738.91,693.24,735.28,689.72,731.89z M705.23,785.83c-10.05,1.65-20.2,2.89-30.4,3.8
					c-1.65-11.09-3.62-22.16-6.25-33.13c5.87-0.17,11.74-0.48,17.63-0.98c3.59-0.31,7.18-0.69,10.78-1.17
					c0.58,0.89,1.15,1.78,1.71,2.68c4.3,6.92,7.98,14.26,11.16,21.81c0.8,1.9,1.56,3.82,2.3,5.75
					C709.85,785.03,707.54,785.44,705.23,785.83z M735.7,778.89c-4.37,1.36-8.85,2.54-13.38,3.59c-1.05-2.57-2.15-5.13-3.31-7.66
					c-3.5-7.63-7.52-15.04-12.17-22.08c0.55-0.11,1.11-0.22,1.66-0.33c3.75-0.81,7.51-1.76,11.43-3.28
					c0.38-0.15,0.77-0.31,1.16-0.48c6.72,5.97,12.87,12.59,18.35,19.7c1.83,2.38,3.59,4.82,5.28,7.3
					C741.83,776.85,738.78,777.92,735.7,778.89z M754.84,769.8c-0.32,0.3-0.67,0.59-1.05,0.89c-2.09-2.93-4.26-5.79-6.54-8.57
					c-3.66-4.48-7.58-8.76-11.73-12.81c5.99,4.6,11.65,9.61,16.9,15.02c1.26,1.29,2.49,2.62,3.7,3.95
					C755.92,768.65,755.48,769.22,754.84,769.8z"/>
				<path class="st3" d="M611.64,720.5c4.86-3.38,9.31-6.31,13.89-9.19c-15.88,1.81-31.48,5.91-46.11,12.22
					c-11.15,4.79-21.73,10.83-31.52,17.94c-23.85,16.9-42.97,40.03-54.99,67h4.57c6.01-13.06,13.74-25.19,22.9-36.06
					c1.3,2.22,3.72,4.62,7.89,7.03c-5.6,9.03-10.42,18.75-14.36,29.03h4.46c3.77-9.58,8.33-18.66,13.59-27.11
					c1.95,0.92,4.17,1.83,6.7,2.74c1.06-1.12,2.11-2.24,3.17-3.34c-2.84-0.95-5.39-1.92-7.61-2.92
					c8.18-12.42,17.89-23.39,28.8-32.52c0.37-0.3,0.73-0.59,1.1-0.88c3.04,1.53,6.96,2.89,11.52,4.1c1.3-1.13,2.6-2.24,3.89-3.33
					c-5.12-1.19-8.94-2.42-11.73-3.6c5.96-4.42,12.26-8.35,18.86-11.69c7.6-3.86,15.6-6.91,23.81-9.09L611.64,720.5z M576.19,730.32
					c-4.38,2.79-8.58,5.85-12.61,9.11c-0.94-0.63-1.59-1.22-1.99-1.74C566.32,734.98,571.2,732.51,576.19,730.32z M556.02,741
					c0.66-0.41,1.33-0.81,2-1.22c0.57,0.81,1.35,1.59,2.32,2.34c-0.62,0.53-1.24,1.06-1.85,1.6c-10.59,9.17-20.02,20.04-28.02,32.25
					c-4.11-2.3-6.55-4.68-7.1-7.03C532.94,758.23,543.91,748.82,556.02,741z"/>
			</g>
			<g>
				<linearGradient id="SVGID_1_" gradientUnits="userSpaceOnUse" x1="779.4047" y1="858.8741" x2="541.0889" y2="858.8741">
					<stop  offset="0" style="stop-color:#B3CD8C"/>
					<stop  offset="0.9897" style="stop-color:#88B04B"/>
				</linearGradient>
				<path class="st4" d="M510.01,816.81v84.14h-19.43v-34.48h-33.54v34.48h-19.43v-84.14h19.43v32.59h33.54v-32.59H510.01z"/>
				<linearGradient id="SVGID_2_" gradientUnits="userSpaceOnUse" x1="779.4047" y1="858.8741" x2="541.0889" y2="858.8741">
					<stop  offset="0" style="stop-color:#B3CD8C"/>
					<stop  offset="0.9897" style="stop-color:#88B04B"/>
				</linearGradient>
				<path class="st5" d="M524.86,833.52v-16.71h18.44v16.71H524.86z M524.86,900.94v-60.51h18.44v60.51H524.86z"/>
				<linearGradient id="SVGID_3_" gradientUnits="userSpaceOnUse" x1="779.4047" y1="743.1301" x2="541.0889" y2="743.1301">
					<stop  offset="0" style="stop-color:#B3CD8C"/>
					<stop  offset="0.9897" style="stop-color:#88B04B"/>
				</linearGradient>
				<path class="st6" d="M755.3,740.89l-2.88-23.19l7.68,5.76c60.14-87.73-124.98-36.11-216.8,85.01h-18.44
					c145.43-168.99,310.25-149.72,245.45-78.2l9.94,5.41L755.3,740.89z"/>
			</g>
		</g>
	</g>
	<g>
		<text transform="matrix(1 0 0 1 435.0653 1188.5858)" class="st7 st1 st8">Community-Based Economic Development</text>
		<g>
			<g>
				<path class="st0" d="M416.7,1113.13c0-5.19,0.94-10.32,2.81-15.39c1.88-5.07,4.61-9.6,8.2-13.59c3.59-3.99,7.98-7.22,13.17-9.7
					c5.19-2.47,11.1-3.71,17.72-3.71c7.82,0,14.59,1.72,20.3,5.15c5.71,3.43,9.96,7.9,12.75,13.41l-12.69,8.74
					c-1.12-2.4-2.48-4.41-4.07-6.05c-1.6-1.64-3.31-2.93-5.15-3.89c-1.84-0.96-3.75-1.66-5.75-2.1c-2-0.44-3.95-0.66-5.87-0.66
					c-4.15,0-7.77,0.84-10.84,2.52c-3.07,1.68-5.63,3.85-7.66,6.53c-2.04,2.68-3.57,5.71-4.61,9.1c-1.04,3.39-1.56,6.77-1.56,10.12
					c0,3.75,0.6,7.37,1.8,10.84c1.2,3.47,2.89,6.53,5.09,9.16c2.2,2.63,4.83,4.75,7.9,6.35c3.07,1.6,6.45,2.4,10.12,2.4
					c1.92,0,3.91-0.24,5.99-0.72c2.08-0.48,4.05-1.24,5.93-2.28c1.87-1.04,3.61-2.38,5.21-4.01c1.6-1.64,2.87-3.61,3.83-5.93
					l13.53,7.78c-1.36,3.19-3.29,6.01-5.81,8.44c-2.51,2.44-5.35,4.49-8.5,6.17c-3.15,1.68-6.53,2.95-10.12,3.83
					c-3.59,0.88-7.11,1.32-10.54,1.32c-6.07,0-11.62-1.28-16.65-3.83c-5.03-2.55-9.36-5.89-12.99-10c-3.63-4.11-6.47-8.78-8.5-14.01
					C417.71,1123.89,416.7,1118.56,416.7,1113.13z"/>
				<path class="st0" d="M570.98,1134.74c0,3.64-0.73,6.84-2.19,9.59c-1.46,2.75-3.46,5.06-6.01,6.92
					c-2.55,1.86-5.51,3.28-8.87,4.25c-3.36,0.97-6.94,1.46-10.75,1.46h-41.66v-86.23h46.15c2.99,0,5.71,0.65,8.14,1.94
					c2.43,1.3,4.49,2.98,6.19,5.04c1.7,2.06,3.02,4.41,3.95,7.04c0.93,2.63,1.4,5.28,1.4,7.95c0,4.21-1.05,8.16-3.16,11.84
					c-2.11,3.69-5.18,6.42-9.23,8.2c4.94,1.46,8.84,4.07,11.72,7.83C569.54,1124.35,570.98,1129.07,570.98,1134.74z M518.27,1085.06
					v21.74h22.35c2.83,0,5.24-0.97,7.23-2.91c1.98-1.94,2.98-4.61,2.98-8.02c0-3.32-0.91-5.95-2.73-7.89
					c-1.82-1.94-4.07-2.91-6.74-2.91H518.27z M554.1,1131.58c0-1.54-0.26-3.02-0.79-4.43c-0.53-1.42-1.24-2.65-2.13-3.7
					c-0.89-1.05-1.94-1.88-3.16-2.49c-1.21-0.61-2.55-0.91-4.01-0.91h-25.75v22.71h24.9c1.54,0,2.98-0.28,4.31-0.85
					c1.34-0.57,2.49-1.35,3.46-2.37c0.97-1.01,1.74-2.2,2.31-3.58C553.81,1134.57,554.1,1133.12,554.1,1131.58z"/>
				<path class="st0" d="M644.13,1142.27v14.7h-59.87v-86.23h58.78v14.7h-42.02v20.77h36.31v13.6h-36.31v22.47H644.13z"/>
				<path class="st0" d="M655.22,1156.96v-86.23h31.33c7.04,0,13.22,1.13,18.52,3.4c5.3,2.27,9.73,5.34,13.3,9.23
					c3.56,3.89,6.23,8.44,8.02,13.66c1.78,5.22,2.67,10.79,2.67,16.7c0,6.56-0.99,12.49-2.98,17.79c-1.98,5.3-4.84,9.84-8.56,13.6
					c-3.73,3.76-8.2,6.68-13.42,8.74c-5.22,2.06-11.07,3.1-17.55,3.1H655.22z M712.17,1113.73c0-4.13-0.57-7.93-1.7-11.42
					c-1.13-3.48-2.79-6.48-4.98-8.99c-2.19-2.51-4.88-4.45-8.08-5.83c-3.2-1.38-6.82-2.06-10.87-2.06h-14.57v56.84h14.57
					c4.13,0,7.79-0.73,10.99-2.19c3.2-1.46,5.87-3.46,8.01-6.01c2.14-2.55,3.78-5.57,4.92-9.05
					C711.61,1121.54,712.17,1117.78,712.17,1113.73z"/>
			</g>
			<g>
				<g>
					<linearGradient id="SVGID_4_" gradientUnits="userSpaceOnUse" x1="785.7689" y1="1074.2333" x2="742.7831" y2="1117.219">
						<stop  offset="0" style="stop-color:#FC9B85"/>
						<stop  offset="1" style="stop-color:#FC7C5F"/>
					</linearGradient>
					<path class="st9" d="M784.08,1069.09c-0.01,0-0.02,0-0.03,0c-1.03,1.36-1.9,2.84-2.6,4.42c-1.21,2.72-1.89,5.73-1.91,8.89
						c0,0.04,0,0.09,0,0.13c0,1.02,0.07,2.01,0.21,2.99c0.82-1.18,1.68-2.32,2.6-3.41c2.54-3.03,5.44-5.75,8.64-8.08
						c1.63-1.19,3.33-2.28,5.1-3.26C792.27,1069.69,788.24,1069.09,784.08,1069.09z"/>
					<linearGradient id="SVGID_5_" gradientUnits="userSpaceOnUse" x1="804.322" y1="1092.7864" x2="761.3362" y2="1135.7721">
						<stop  offset="0" style="stop-color:#FC9B85"/>
						<stop  offset="1" style="stop-color:#FC7C5F"/>
					</linearGradient>
					<path class="st10" d="M828,1112.26c-0.07-3.77-0.61-7.43-1.57-10.91c-0.48-1.74-1.06-3.44-1.74-5.09
						c-0.69-1.66-1.48-3.27-2.36-4.83c-0.11-0.19-0.22-0.38-0.33-0.57c-0.86-0.1-1.74-0.16-2.63-0.16c-0.84,0-1.67,0.05-2.48,0.14
						c-3.12,0.35-6.05,1.34-8.64,2.84c-1.25,0.73-2.43,1.57-3.52,2.51c1.81,2.22,3.27,4.73,4.3,7.46c0.5,1.34,0.9,2.73,1.19,4.16
						c0.28,1.42,0.45,2.88,0.49,4.38c0.01,0.27,0.02,0.55,0.02,0.82c0,2.93-0.48,5.75-1.36,8.39c-0.55,1.64-1.25,3.22-2.09,4.7
						c-0.75,1.31-1.6,2.56-2.55,3.73c-0.25,0.3-0.5,0.6-0.76,0.89c-0.7,0.79-1.45,1.53-2.24,2.23c-1.1,0.97-2.27,1.85-3.52,2.64
						c-2.61,1.64-5.52,2.84-8.62,3.49c-1.66,0.35-3.37,0.54-5.12,0.56c-0.13,0-0.25,0.01-0.38,0.01c-1.8,0-3.56-0.18-5.26-0.52
						c-12.18-2.45-21.38-13.23-21.38-26.12c0-3.01,0.51-5.9,1.43-8.61c-0.9-1.75-1.7-3.56-2.38-5.43
						c-1.33-3.66-2.23-7.52-2.64-11.52c-0.17-1.62-0.25-3.27-0.25-4.94c0-0.38,0.02-0.75,0.03-1.13c-8.3,8-13.48,19.21-13.48,31.63
						c0,24.23,19.71,43.94,43.94,43.94c4.16,0,8.19-0.59,12.01-1.68c1.94-0.55,3.82-1.23,5.64-2.03c1.77-0.78,3.48-1.66,5.11-2.65
						c3.16-1.92,6.05-4.23,8.62-6.86c1.26-1.29,2.44-2.65,3.53-4.08c1.09-1.43,2.09-2.92,3-4.47c2.04-3.48,3.63-7.26,4.65-11.27
						c0.49-1.92,0.85-3.89,1.08-5.9c0.19-1.64,0.29-3.3,0.29-4.99C828.02,1112.77,828,1112.51,828,1112.26z"/>
				</g>
				<g>
					<linearGradient id="SVGID_6_" gradientUnits="userSpaceOnUse" x1="837.3605" y1="1077.0895" x2="785.0156" y2="1129.4344">
						<stop  offset="0" style="stop-color:#9EB5F0"/>
						<stop  offset="1" style="stop-color:#637CBD"/>
					</linearGradient>
					<path class="st11" d="M782.14,1126.56c-1.86-0.84-3.66-1.77-5.38-2.83c1.02,4.07,2.62,7.92,4.7,11.45
						c0.86,0.1,1.74,0.16,2.63,0.16c0.84,0,1.67-0.05,2.48-0.14c3.12-0.35,6.05-1.34,8.64-2.84c0.91-0.53,1.78-1.11,2.6-1.76
						c-1.45-0.12-2.87-0.31-4.28-0.55C789.54,1129.36,785.72,1128.17,782.14,1126.56z"/>
					<linearGradient id="SVGID_7_" gradientUnits="userSpaceOnUse" x1="846.3359" y1="1086.0649" x2="793.9909" y2="1138.4098">
						<stop  offset="0" style="stop-color:#9EB5F0"/>
						<stop  offset="1" style="stop-color:#637CBD"/>
					</linearGradient>
					<path class="st12" d="M850.1,1081.66c-1.43-1.4-2.95-2.71-4.57-3.91c-1.54-1.15-3.17-2.19-4.85-3.13
						c-3.21-1.79-6.65-3.19-10.29-4.13c-1.73-0.45-3.51-0.78-5.32-1.02c-1.77-0.23-3.57-0.36-5.4-0.37c-0.1,0-0.2-0.01-0.3-0.01
						c-4.16,0-8.19,0.59-12.01,1.68c-1.94,0.55-3.82,1.23-5.64,2.03c-1.77,0.78-3.48,1.66-5.11,2.65c-3.16,1.92-6.05,4.23-8.62,6.86
						c-1.26,1.29-2.44,2.65-3.53,4.08c-1.09,1.43-2.09,2.92-3,4.47c-0.06,0.1-0.12,0.2-0.17,0.3c0.67,1.59,1.52,3.08,2.52,4.45
						c1.8,2.48,4.09,4.57,6.74,6.13c1.24,0.73,2.55,1.35,3.92,1.83c1.02-2.69,2.47-5.18,4.26-7.38c0.91-1.12,1.92-2.16,3-3.12
						c1.1-0.97,2.27-1.85,3.52-2.64c2.61-1.64,5.52-2.84,8.62-3.49c1.66-0.35,3.37-0.54,5.12-0.56c0.13,0,0.25-0.01,0.38-0.01
						c1.5,0,2.97,0.13,4.4,0.37c0.29,0.05,0.57,0.1,0.86,0.15c1.14,0.23,2.26,0.54,3.34,0.91c1.4,0.48,2.75,1.07,4.03,1.76
						c2.77,1.5,5.24,3.48,7.31,5.81c1.14,1.29,2.16,2.69,3.04,4.18c0.95,1.62,1.74,3.35,2.33,5.16c0.86,2.61,1.33,5.4,1.33,8.29
						c0,12.89-9.2,23.67-21.38,26.12c-1.08,1.67-2.25,3.27-3.53,4.8c-2.54,3.03-5.44,5.75-8.64,8.08c-1.63,1.19-3.33,2.28-5.1,3.26
						c3.82,1.09,7.84,1.68,12.01,1.68c24.23,0,43.93-19.71,43.93-43.94C863.3,1100.75,858.24,1089.64,850.1,1081.66z"/>
				</g>
				<g>
					<linearGradient id="SVGID_8_" gradientUnits="userSpaceOnUse" x1="851.4629" y1="1081.7593" x2="802.7624" y2="1130.4597">
						<stop  offset="0" style="stop-color:#B3CD8C"/>
						<stop  offset="0.9897" style="stop-color:#88B04B"/>
					</linearGradient>
					<path class="st13" d="M837.43,1099.94c-1.8-2.48-4.09-4.57-6.74-6.13c-0.97-0.57-1.98-1.07-3.03-1.49
						c0.66,1.38,1.26,2.8,1.79,4.26c1.33,3.66,2.23,7.52,2.64,11.52c0.17,1.62,0.25,3.27,0.25,4.94c0,0.38-0.02,0.75-0.03,1.13
						c2.98-2.87,5.56-6.16,7.64-9.77C839.28,1102.8,838.43,1101.31,837.43,1099.94z"/>
					<linearGradient id="SVGID_9_" gradientUnits="userSpaceOnUse" x1="822.5109" y1="1052.8074" x2="773.8105" y2="1101.5078">
						<stop  offset="0" style="stop-color:#B3CD8C"/>
						<stop  offset="0.9897" style="stop-color:#88B04B"/>
					</linearGradient>
					<path class="st14" d="M801.86,1038.59c-20.47,0-37.71,14.07-42.57,33.04c-0.49,1.92-0.85,3.89-1.08,5.9
						c-0.19,1.64-0.29,3.3-0.29,4.99c0,0.26,0.02,0.51,0.02,0.77c0.07,3.77,0.61,7.43,1.57,10.91c0.48,1.74,1.06,3.44,1.74,5.09
						c0.69,1.66,1.48,3.27,2.36,4.83c2.04,3.6,4.57,6.89,7.51,9.77c1.43,1.4,2.95,2.71,4.57,3.91c1.54,1.15,3.17,2.19,4.85,3.13
						c3.21,1.79,6.65,3.19,10.29,4.13c1.73,0.45,3.51,0.78,5.32,1.02c1.77,0.23,3.57,0.36,5.4,0.37c0.1,0,0.2,0.01,0.3,0.01
						c0.01,0,0.02,0,0.03,0c1.03-1.36,1.9-2.84,2.6-4.42c1.21-2.72,1.89-5.73,1.91-8.89c0-0.04,0-0.09,0-0.13
						c0-1.43-0.14-2.82-0.4-4.18c-1.35,0.21-2.73,0.32-4.14,0.32c-1.5,0-2.97-0.13-4.4-0.37c-1.44-0.24-2.85-0.6-4.2-1.06
						c-1.4-0.48-2.75-1.07-4.03-1.76c-2.77-1.5-5.24-3.47-7.31-5.81c-1.14-1.29-2.16-2.69-3.04-4.18c-0.76-1.3-1.42-2.66-1.96-4.09
						c-0.13-0.35-0.26-0.71-0.38-1.07c-0.33-1.01-0.6-2.03-0.81-3.09c-0.28-1.42-0.45-2.88-0.49-4.38
						c-0.01-0.27-0.02-0.55-0.02-0.82c0-2.93,0.48-5.75,1.36-8.39c0.55-1.64,1.25-3.22,2.09-4.7c0.94-1.66,2.05-3.2,3.31-4.61
						c4.88-5.48,11.98-8.93,19.88-8.93c7.9,0,15,3.46,19.89,8.94c2.02,0.1,4.01,0.33,5.96,0.68c3.98,0.7,7.8,1.88,11.38,3.49
						c1.86,0.84,3.66,1.77,5.38,2.83C839.68,1052.76,822.39,1038.59,801.86,1038.59z"/>
				</g>
			</g>
		</g>
	</g>
	<g>
		<text transform="matrix(1 0 0 1 256.11 573.7026)" class="st15 st1 st16">Helping communities by helping businesses</text>
		<g>
			<path class="st15" d="M282.53,518.21v9.67h-39.39v-56.72h38.67v9.67h-27.64v13.66h23.89v8.95h-23.89v14.78H282.53z"/>
			<path class="st15" d="M302.18,491.53v36.35h-11.03v-56.72h8.55l29.56,37.23v-37.15h11.02v56.64h-8.95L302.18,491.53z"/>
			<path class="st15" d="M394.54,480.82H376.4v47.06h-10.94v-47.06h-18.14v-9.67h47.22V480.82z"/>
			<path class="st15" d="M440.95,518.21v9.67h-39.39v-56.72h38.67v9.67h-27.64v13.66h23.89v8.95h-23.89v14.78H440.95z"/>
			<path class="st15" d="M449.58,527.88v-56.72h25.09c2.61,0,5.02,0.55,7.23,1.64c2.21,1.09,4.11,2.53,5.71,4.31
				c1.6,1.79,2.85,3.81,3.76,6.07c0.91,2.26,1.36,4.54,1.36,6.83c0,3.68-0.92,7.02-2.76,10.03c-1.84,3.01-4.33,5.18-7.47,6.51
				l12.94,21.33h-12.38l-11.58-19.01H460.6v19.01H449.58z M460.6,499.2h13.82c1.01,0,1.96-0.24,2.84-0.72
				c0.88-0.48,1.64-1.13,2.28-1.96c0.64-0.83,1.14-1.8,1.52-2.92c0.37-1.12,0.56-2.32,0.56-3.6c0-1.33-0.21-2.56-0.64-3.67
				c-0.43-1.12-1-2.09-1.72-2.92c-0.72-0.82-1.55-1.46-2.48-1.92c-0.93-0.45-1.88-0.68-2.84-0.68H460.6V499.2z"/>
			<path class="st15" d="M502.71,527.88v-56.72h24.05c2.61,0,5.02,0.55,7.23,1.64c2.21,1.09,4.11,2.53,5.71,4.31
				c1.6,1.79,2.85,3.81,3.75,6.07c0.91,2.26,1.36,4.54,1.36,6.83c0,2.4-0.43,4.73-1.28,6.99c-0.85,2.26-2.05,4.27-3.6,6.03
				c-1.55,1.76-3.41,3.17-5.59,4.23c-2.18,1.07-4.58,1.6-7.19,1.6h-13.42v19.01H502.71z M513.73,499.2h12.78
				c2.02,0,3.71-0.82,5.07-2.48c1.36-1.65,2.04-3.89,2.04-6.71c0-1.44-0.21-2.73-0.64-3.87c-0.43-1.14-0.99-2.12-1.68-2.92
				c-0.69-0.8-1.51-1.4-2.44-1.8c-0.93-0.4-1.88-0.6-2.84-0.6h-12.3V499.2z"/>
			<path class="st15" d="M552.48,527.88v-56.72h25.09c2.61,0,5.02,0.55,7.23,1.64c2.21,1.09,4.11,2.53,5.71,4.31
				c1.6,1.79,2.85,3.81,3.76,6.07c0.91,2.26,1.36,4.54,1.36,6.83c0,3.68-0.92,7.02-2.76,10.03c-1.84,3.01-4.33,5.18-7.47,6.51
				l12.94,21.33h-12.38l-11.58-19.01H563.5v19.01H552.48z M563.5,499.2h13.82c1.01,0,1.96-0.24,2.84-0.72
				c0.88-0.48,1.64-1.13,2.28-1.96c0.64-0.83,1.14-1.8,1.52-2.92c0.37-1.12,0.56-2.32,0.56-3.6c0-1.33-0.21-2.56-0.64-3.67
				c-0.43-1.12-1-2.09-1.72-2.92c-0.72-0.82-1.55-1.46-2.48-1.92c-0.93-0.45-1.88-0.68-2.84-0.68H563.5V499.2z"/>
			<path class="st15" d="M605.61,527.88v-56.72h11.03v56.72H605.61z"/>
			<path class="st15" d="M662.25,485.38c-0.37-0.37-1.05-0.88-2.04-1.52c-0.99-0.64-2.18-1.26-3.6-1.88
				c-1.41-0.61-2.94-1.13-4.59-1.56c-1.65-0.43-3.33-0.64-5.03-0.64c-3.04,0-5.3,0.56-6.79,1.68c-1.49,1.12-2.24,2.69-2.24,4.71
				c0,1.17,0.28,2.14,0.84,2.92c0.56,0.77,1.37,1.45,2.44,2.04c1.06,0.59,2.41,1.12,4.03,1.6c1.62,0.48,3.5,0.99,5.63,1.52
				c2.77,0.75,5.28,1.55,7.55,2.4c2.26,0.85,4.18,1.92,5.75,3.2c1.57,1.28,2.78,2.81,3.63,4.59c0.85,1.79,1.28,3.98,1.28,6.59
				c0,3.04-0.57,5.63-1.72,7.79c-1.15,2.16-2.69,3.9-4.63,5.23c-1.94,1.33-4.18,2.3-6.71,2.92c-2.53,0.61-5.18,0.92-7.95,0.92
				c-4.26,0-8.47-0.64-12.62-1.92c-4.15-1.28-7.88-3.09-11.18-5.43l4.87-9.51c0.48,0.48,1.34,1.11,2.6,1.88
				c1.25,0.77,2.73,1.55,4.43,2.32c1.7,0.77,3.6,1.43,5.67,1.96c2.08,0.53,4.21,0.8,6.39,0.8c6.07,0,9.11-1.94,9.11-5.83
				c0-1.22-0.35-2.26-1.04-3.12c-0.69-0.85-1.68-1.6-2.96-2.24c-1.28-0.64-2.82-1.22-4.63-1.76c-1.81-0.53-3.83-1.12-6.07-1.76
				c-2.72-0.75-5.07-1.56-7.07-2.44c-2-0.88-3.66-1.92-4.99-3.12c-1.33-1.2-2.33-2.58-3-4.15c-0.67-1.57-1-3.45-1-5.63
				c0-2.88,0.53-5.43,1.6-7.67c1.07-2.24,2.54-4.1,4.43-5.59c1.89-1.49,4.09-2.62,6.59-3.4c2.5-0.77,5.19-1.16,8.07-1.16
				c3.99,0,7.67,0.63,11.02,1.88c3.36,1.25,6.28,2.73,8.79,4.43L662.25,485.38z"/>
			<path class="st15" d="M716.81,518.21v9.67h-39.39v-56.72h38.67v9.67h-27.64v13.66h23.89v8.95h-23.89v14.78H716.81z"/>
		</g>
		<linearGradient id="SVGID_10_" gradientUnits="userSpaceOnUse" x1="741.172" y1="497.6822" x2="1031.9618" y2="497.6822">
			<stop  offset="0" style="stop-color:#B3CD8C"/>
			<stop  offset="0.9897" style="stop-color:#88B04B"/>
		</linearGradient>
		<path class="st17" d="M1036.86,536.89H738.48v-78.42h298.37V536.89z M755.39,525.35h42.11v-9.05h-29.24l29.02-36.27v-7.78h-41.06
			v9.05h29.17l-29.99,36.27V525.35z M842.2,523.15c3.19-1.47,5.93-3.44,8.23-5.91c2.29-2.47,4.09-5.31,5.39-8.53
			c1.3-3.22,1.94-6.59,1.94-10.13c0-3.34-0.62-6.63-1.87-9.87c-1.25-3.24-2.99-6.13-5.24-8.68c-2.24-2.54-4.95-4.6-8.11-6.17
			c-3.17-1.57-6.67-2.36-10.51-2.36c-3.74,0-7.21,0.74-10.4,2.21c-3.19,1.47-5.95,3.45-8.26,5.95c-2.32,2.49-4.14,5.36-5.46,8.6
			c-1.32,3.24-1.98,6.63-1.98,10.17c0,3.39,0.62,6.71,1.87,9.95c1.25,3.24,3,6.12,5.27,8.64c2.27,2.52,4.99,4.54,8.15,6.06
			c3.17,1.52,6.69,2.28,10.58,2.28C835.54,525.35,839,524.62,842.2,523.15z M817.4,491.96c0.67-2.12,1.66-4.01,2.95-5.68
			c1.3-1.67,2.92-3.02,4.86-4.04c1.94-1.02,4.16-1.53,6.66-1.53c2.39,0,4.55,0.49,6.47,1.46c1.92,0.97,3.54,2.28,4.86,3.93
			c1.32,1.64,2.34,3.54,3.07,5.68c0.72,2.14,1.08,4.36,1.08,6.66c0,2.19-0.34,4.35-1.01,6.47c-0.67,2.12-1.67,4.03-2.99,5.72
			c-1.32,1.7-2.94,3.05-4.86,4.08c-1.92,1.02-4.13,1.53-6.62,1.53c-2.44,0-4.63-0.5-6.54-1.5c-1.92-1-3.54-2.32-4.86-3.96
			c-1.32-1.64-2.33-3.54-3.03-5.68c-0.7-2.14-1.05-4.36-1.05-6.66C816.39,496.24,816.73,494.08,817.4,491.96z M907.03,525.35h8.38
			v-53.03h-10.32v34.78l-27.67-34.85h-8v53.1h10.32v-34.03L907.03,525.35z M942.27,516.3v-13.84h22.36v-8.38h-22.36V481.3h25.88
			v-9.05h-36.2v53.1h36.87v-9.05H942.27z M1020.58,477.19c-2.34-1.6-5.09-2.98-8.23-4.15c-3.14-1.17-6.58-1.76-10.32-1.76
			c-2.69,0-5.21,0.36-7.55,1.08c-2.34,0.72-4.4,1.78-6.17,3.18c-1.77,1.4-3.15,3.14-4.15,5.24c-1,2.09-1.5,4.49-1.5,7.18
			c0,2.04,0.31,3.8,0.93,5.27c0.62,1.47,1.56,2.77,2.8,3.89c1.25,1.12,2.8,2.09,4.67,2.92c1.87,0.82,4.08,1.58,6.62,2.28
			c2.09,0.6,3.99,1.15,5.68,1.65c1.69,0.5,3.14,1.05,4.34,1.64c1.2,0.6,2.12,1.3,2.77,2.09c0.65,0.8,0.97,1.77,0.97,2.92
			c0,3.64-2.84,5.46-8.53,5.46c-2.04,0-4.04-0.25-5.98-0.75c-1.94-0.5-3.72-1.11-5.31-1.83c-1.6-0.72-2.98-1.45-4.15-2.17
			c-1.17-0.72-1.98-1.31-2.43-1.76l-4.56,8.9c3.09,2.19,6.58,3.89,10.47,5.09c3.89,1.2,7.83,1.79,11.82,1.79
			c2.59,0,5.07-0.29,7.44-0.86c2.37-0.57,4.46-1.48,6.28-2.73c1.82-1.25,3.27-2.88,4.34-4.9c1.07-2.02,1.61-4.45,1.61-7.29
			c0-2.44-0.4-4.5-1.2-6.17c-0.8-1.67-1.93-3.1-3.4-4.3c-1.47-1.2-3.27-2.19-5.38-2.99c-2.12-0.8-4.48-1.54-7.07-2.24
			c-1.99-0.5-3.75-0.97-5.27-1.42c-1.52-0.45-2.78-0.95-3.78-1.5c-1-0.55-1.76-1.18-2.28-1.91c-0.52-0.72-0.78-1.63-0.78-2.73
			c0-1.89,0.7-3.37,2.09-4.41c1.4-1.05,3.52-1.57,6.36-1.57c1.59,0,3.17,0.2,4.71,0.6c1.54,0.4,2.98,0.89,4.3,1.46
			c1.32,0.57,2.44,1.16,3.37,1.76c0.92,0.6,1.56,1.07,1.91,1.42L1020.58,477.19z"/>
		<g>
			<g>
				<linearGradient id="SVGID_11_" gradientUnits="userSpaceOnUse" x1="741.172" y1="348.2851" x2="1031.9618" y2="348.2851">
					<stop  offset="0" style="stop-color:#B3CD8C"/>
					<stop  offset="0.9897" style="stop-color:#88B04B"/>
				</linearGradient>
				<polygon class="st18" points="1008.27,279.37 969.5,246.71 969.5,449.86 1008.31,449.86 				"/>
				<linearGradient id="SVGID_12_" gradientUnits="userSpaceOnUse" x1="741.172" y1="348.2851" x2="1031.9618" y2="348.2851">
					<stop  offset="0" style="stop-color:#B3CD8C"/>
					<stop  offset="0.9897" style="stop-color:#88B04B"/>
				</linearGradient>
				<polygon class="st19" points="939.35,329.71 939.37,449.86 960.88,449.86 960.88,246.71 922.11,279.37 922.12,315.2 				"/>
				<linearGradient id="SVGID_13_" gradientUnits="userSpaceOnUse" x1="741.172" y1="375.6019" x2="1031.9618" y2="375.6019">
					<stop  offset="0" style="stop-color:#B3CD8C"/>
					<stop  offset="0.9897" style="stop-color:#88B04B"/>
				</linearGradient>
				<polygon class="st20" points="930.73,334.01 891.96,301.35 891.96,449.86 930.76,449.86 				"/>
				<linearGradient id="SVGID_14_" gradientUnits="userSpaceOnUse" x1="741.172" y1="375.6019" x2="1031.9618" y2="375.6019">
					<stop  offset="0" style="stop-color:#B3CD8C"/>
					<stop  offset="0.9897" style="stop-color:#88B04B"/>
				</linearGradient>
				<polygon class="st21" points="861.8,384.34 861.82,449.86 883.34,449.86 883.34,301.35 844.57,334.01 844.58,369.83 				"/>
				<linearGradient id="SVGID_15_" gradientUnits="userSpaceOnUse" x1="741.172" y1="402.9187" x2="1031.9618" y2="402.9187">
					<stop  offset="0" style="stop-color:#B3CD8C"/>
					<stop  offset="0.9897" style="stop-color:#88B04B"/>
				</linearGradient>
				<polygon class="st22" points="853.19,388.64 814.42,355.98 814.42,449.86 853.2,449.86 				"/>
				<linearGradient id="SVGID_16_" gradientUnits="userSpaceOnUse" x1="741.172" y1="402.9187" x2="1031.9618" y2="402.9187">
					<stop  offset="0" style="stop-color:#B3CD8C"/>
					<stop  offset="0.9897" style="stop-color:#88B04B"/>
				</linearGradient>
				<polygon class="st23" points="805.8,449.86 805.8,355.98 767.03,388.64 767.05,449.86 				"/>
			</g>
		</g>
	</g>
</g>
</svg>
