<svg id="Layer_1" data-name="Layer 1" xmlns="http://www.w3.org/2000/svg" viewBox="0 0 456.86 170"><defs><style>.cls-1,.cls-2{fill:#fefefe;}.cls-2{fill-rule:evenodd;}</style></defs><path class="cls-1" d="M434.1,168.68C434.1,170,342.72,171,230,171s-204.1-1-204.1-2.32,91.38-2.31,204.1-2.31S434.1,167.41,434.1,168.68Z" transform="translate(-1.57 -1)"/><path class="cls-1" d="M84.69,122.61c-.76-1.63-1.74-2.44-3-2.44a4.45,4.45,0,0,0-1.89.42,32.38,32.38,0,0,0-3.18,1.86,45.38,45.38,0,0,1-11.25,5.41,43.13,43.13,0,0,1-13,1.82q-15.91,0-27.35-5.67A39.78,39.78,0,0,1,7.59,107.65q-6-10.68-6-25.48,0-15.32,6.4-26.83A44.43,44.43,0,0,1,25.74,37.62,52.74,52.74,0,0,1,51.5,31.39a49.5,49.5,0,0,1,11.18,1.14,40,40,0,0,1,8.48,2.9q3.6,1.76,8.3,4.63a6.19,6.19,0,0,0,3.11,1.37q3,0,3.86-8.15H90q-.6,8.67-.6,30.7H85.82a84.65,84.65,0,0,0-2.95-11.76,21.52,21.52,0,0,0-4.85-8A31.84,31.84,0,0,0,66.28,36.6,41.39,41.39,0,0,0,51.2,33.8a29.34,29.34,0,0,0-18,5.74q-7.73,5.73-12,16.33T17,80.67q0,16,4,26.27t12.13,15.15Q41.28,127,54,127a30.32,30.32,0,0,0,16.14-4.17,9.67,9.67,0,0,0,3.64-3.13,8.73,8.73,0,0,0,.83-4.17V102.7q0-5.53-1.21-8.12A6.65,6.65,0,0,0,69,91.06a44.48,44.48,0,0,0-10.07-1.2V87.18q7.65.46,21.89.46,10.92,0,16.14-.46v2.68a14.25,14.25,0,0,0-5.19,1.07,4.48,4.48,0,0,0-2.12,3,33.22,33.22,0,0,0-.57,7.37v26.46H86A14.16,14.16,0,0,0,84.69,122.61Z" transform="translate(-1.57 -1)"/><path class="cls-1" d="M283.83,118.64q6.68,8.37,20.54,8.37a25.69,25.69,0,0,0,9.89-1.89,16.23,16.23,0,0,0,10.26-15.9,15.49,15.49,0,0,0-2.91-9.23,31.15,31.15,0,0,0-7.92-7.46,134.71,134.71,0,0,0-13.34-7.69A150.55,150.55,0,0,1,285.5,76.3a34.26,34.26,0,0,1-9.2-9,21.29,21.29,0,0,1-3.6-12.35,20.37,20.37,0,0,1,4-12.77,23.76,23.76,0,0,1,10.6-7.79,39.93,39.93,0,0,1,14.59-2.58,42.49,42.49,0,0,1,8.22.69,27.33,27.33,0,0,1,5.72,1.69,55,55,0,0,1,5,2.58c2.33,1.26,4.09,1.89,5.31,1.89a2.38,2.38,0,0,0,2.19-1.4,14.53,14.53,0,0,0,1.22-4.47h3.56q-.76,7.82-.76,27.25h-3.56a35.84,35.84,0,0,0-3.45-12.65A23.49,23.49,0,0,0,317,37.94q-5.5-3.61-13.68-3.62a23.48,23.48,0,0,0-9.77,2,16,16,0,0,0-6.75,5.47,14,14,0,0,0-2.42,8.09,14.73,14.73,0,0,0,5.07,11.66,61,61,0,0,0,11.86,8l9.13,4.79a179.57,179.57,0,0,1,15.46,9.16,33.12,33.12,0,0,1,9.09,9,21,21,0,0,1,3.41,11.9A22.16,22.16,0,0,1,334,118.24a26.59,26.59,0,0,1-11.86,8.57,52.62,52.62,0,0,1-28.91,1.54,43.86,43.86,0,0,1-9-3.62q-3.5-1.89-5.31-1.89a2.4,2.4,0,0,0-2.2,1.4,14.49,14.49,0,0,0-1.21,4.47h-3.56q.6-7.31.61-32h3.56Q277.17,110.26,283.83,118.64Z" transform="translate(-1.57 -1)"/><path class="cls-1" d="M372.21,52.25a140.39,140.39,0,0,0-1.14-17.08q12.89.39,43.8.39,30.67,0,43.56-.39a155.14,155.14,0,0,0-1.06,17.08,104.26,104.26,0,0,0,.46,11h-3.57q-1.2-10.37-3.06-15.35a12.86,12.86,0,0,0-6.52-7.3Q440,38.24,430.4,38.24H422v75.93c0,3.7.4,6.4,1.21,8.12a6.74,6.74,0,0,0,4.39,3.55A41.58,41.58,0,0,0,437.67,127v2.67q-8.18-.39-22.8-.39-15.54,0-23,.39V127A41.56,41.56,0,0,0,402,125.84a6.76,6.76,0,0,0,4.4-3.55c.81-1.72,1.21-4.42,1.21-8.12V38.24h-8.41q-9.63,0-14.28,2.31a12.86,12.86,0,0,0-6.52,7.3q-1.86,5-3.07,15.35h-3.56A107.08,107.08,0,0,0,372.21,52.25Z" transform="translate(-1.57 -1)"/><path class="cls-1" d="M210.61,37.13a40.62,40.62,0,0,1,17.2,16.65q6.1,10.92,6.1,26,0,14.75-6.29,26.08a44.42,44.42,0,0,1-17.5,17.6,51.53,51.53,0,0,1-25.53,6.25q-14.78,0-25.88-5.73a40.76,40.76,0,0,1-17.2-16.66q-6.09-10.91-6.1-26,0-14.73,6.29-26.07a44.42,44.42,0,0,1,17.5-17.6,51.55,51.55,0,0,1,25.54-6.26Q199.52,31.39,210.61,37.13Zm-44,2.64q-7.57,6-11.67,16.62a67.7,67.7,0,0,0-4.09,24.41q0,13.88,4.55,24.44t12.38,16.3a28.81,28.81,0,0,0,17.39,5.73,27.39,27.39,0,0,0,17.47-6q7.53-6,11.63-16.62a68,68,0,0,0,4.09-24.41q0-13.89-4.55-24.45T201.48,39.54a28.62,28.62,0,0,0-17.35-5.74A27.47,27.47,0,0,0,166.63,39.77Z" transform="translate(-1.57 -1)"/><path class="cls-2" d="M195.07,19.35a7.07,7.07,0,0,1-6.82-4.1,12,12,0,0,1,.46-12.63,3.1,3.1,0,0,1,3.67-1.49,2.8,2.8,0,0,1,2.28,2.69,13.31,13.31,0,0,0,6.43,10.54c1.76,1.12,1.63,2.84-.31,3.56A51.8,51.8,0,0,1,195.07,19.35Z" transform="translate(-1.57 -1)"/><path class="cls-2" d="M181.23,8.29A13.43,13.43,0,0,1,179.49,15a8.06,8.06,0,0,1-11.21,3.08,2.05,2.05,0,0,1-.5-3.52c.56-.56,1.25-1,1.81-1.54A15.68,15.68,0,0,0,174,4.53a8.73,8.73,0,0,1,.36-1.61A2.7,2.7,0,0,1,176.87,1a2.75,2.75,0,0,1,2.74,1.51A12.06,12.06,0,0,1,181.23,8.29Z" transform="translate(-1.57 -1)"/></svg>