<?xml version="1.0" encoding="utf-8"?>
<!-- Generator: Adobe Illustrator 22.1.0, SVG Export Plug-In . SVG Version: 6.00 Build 0)  -->
<svg version="1.1" id="Layer_1" xmlns="http://www.w3.org/2000/svg" xmlns:xlink="http://www.w3.org/1999/xlink" x="0px" y="0px"
	 viewBox="0 0 800 800" style="enable-background:new 0 0 800 800;" xml:space="preserve">
<style type="text/css">
	.st0{fill:#D1EE9C;}
	.st1{fill:#E6F572;}
	.st2{fill:#FDFDA4;}
	.st3{fill:#8AD5C8;}
	.st4{fill:#A1DDF9;}
	.st5{fill:#C3E888;}
</style>
<g>
	<path class="st0" d="M20.2,447.8c-26.5,62.5-26.8,131.1-1.5,193.9c25.5,62.8,73.9,111.7,135.9,138.2c62.5,26.5,131,26.8,193.8,1.5
		c44.3-17.8,81.6-47.4,109.2-84.9C378.6,675.2,310,618.5,277.2,537c-1.8-4.6-3.7-9.2-5.2-13.8c-28.3-2.5-56.3-9.2-83.1-20.6
		C132.4,478.9,86.8,437.6,58,385C42.6,403.8,29.7,424.7,20.2,447.8z"/>
	<path class="st1" d="M467.7,681.3c7.1-11.4,13.5-23.4,18.8-36c26.5-62.5,26.8-131.1,1.5-193.9c-0.9-2.2-1.8-4.3-2.8-6.5
		c-24.9,24.9-54.8,45.2-89.6,59.4c-32.9,13.2-67.4,20-101.6,20c-1.2,0-2.5,0-3.7,0c0.9,2.2,1.5,4.3,2.5,6.5
		C324.6,608.9,391.4,662.5,467.7,681.3z"/>
	<path class="st2" d="M622.7,670.2c62.8-25.5,111.6-73.9,138.1-136s26.8-131.1,1.5-193.9c-25.5-62.8-73.9-111.7-135.9-138.2
		c-23.1-9.8-46.8-16-71.1-18.5c23.7,88.6,0.3,181.3-57.5,248c2.2,4.6,4,8.9,6.2,13.8c27.1,67.1,26.5,140.6-1.5,207.1
		c-4.9,11.4-10.5,22.5-16.9,33.2C530.4,692.6,577.8,688.3,622.7,670.2z"/>
	<g>
		<path class="st3" d="M158.2,312.1c-33.9,13.8-63.4,34.5-88,60c27.4,51.7,71.4,92,125.8,115.1c23.1,9.5,47.1,15.7,71.1,18.5
			c-19.7-72.3-8-147.4,28.3-209c-14.2-2.5-28.3-3.7-42.2-3.7C221.3,293.3,189,299.4,158.2,312.1z"/>
		<path class="st4" d="M59.9,349.3c0.9,2.2,1.8,4.3,2.8,6.5c25.2-25.2,55.4-45.5,89.2-59.4c49.5-20.3,102.8-25.2,153.8-15.1
			c28.9-41.9,69.6-76.3,120.2-96.9c33.9-13.8,69.9-20.6,105.3-20.3c-0.9-2.2-1.5-4.3-2.5-6.5C488.7,59.1,393.3-0.3,293.2,0
			c-31.7,0-64,6.2-95.1,18.8C69,71.7,6.9,220,59.9,349.3z"/>
		<path class="st5" d="M390.2,488.1c34.5-14.2,64-34.8,88-60.3c-27.4-51.7-71.1-92-125.8-114.8c-12.6-5.2-25.5-9.5-38.8-12.6
			c-37.5,60-49.5,135.1-28.3,206.5C320.6,508,356.3,501.8,390.2,488.1z"/>
		<path class="st0" d="M527.3,181c-32.3,0-64.3,6.5-95.1,19.1c-44.9,18.5-81.9,48.3-108.5,85.2c12,3.1,23.7,7.1,35.1,12
			c56.3,23.7,101.9,64.6,131,116.9c52-63.4,71.7-150.8,47.1-233C533.8,181.3,530.7,181,527.3,181z"/>
	</g>
</g>
</svg>
