<?xml version="1.0" encoding="utf-8"?>
<!-- Generator: Adobe Illustrator 22.1.0, SVG Export Plug-In . SVG Version: 6.00 Build 0)  -->
<svg version="1.1" id="Layer_1" xmlns="http://www.w3.org/2000/svg" xmlns:xlink="http://www.w3.org/1999/xlink" x="0px" y="0px"
	 viewBox="0 0 800 800" style="enable-background:new 0 0 800 800;" xml:space="preserve">
<style type="text/css">
	.st0{opacity:0.1;}
	.st1{fill:#7F7F7F;}
	.st2{fill:#404040;}
	.st3{fill:#202020;}
</style>
<g class="st0">
	<path class="st1" d="M20.2,447.1C-6.2,509.4-6.7,578.3,18.7,641s73.7,111.8,136,138.2s131.1,26.9,193.8,1.5
		c44.2-17.9,81.6-47.3,109.1-85c-79-21.3-147.5-78-180.5-159.5c-1.9-4.6-3.6-9.2-5.2-13.9c-28.2-2.4-56.2-9.2-83-20.5
		c-56.2-23.8-101.7-65-130.8-117.6C42.7,403.1,29.9,424.1,20.2,447.1z"/>
	<path class="st2" d="M467.8,680.7c7.1-11.4,13.5-23.4,18.8-36.1c26.4-62.3,26.9-131.2,1.5-193.9c-0.9-2.2-1.9-4.3-2.8-6.5
		c-24.8,24.9-54.9,45.2-89.4,59.2c-32.8,13.3-67.2,20-101.6,20c-1.3,0-2.5-0.1-3.8-0.1c0.8,2.2,1.6,4.4,2.5,6.5
		C324.7,608.2,391.4,662,467.8,680.7z"/>
	<path class="st1" d="M622.8,669.5c62.7-25.4,111.7-73.8,138.1-136.1s26.9-131.2,1.5-193.9s-73.7-111.8-136-138.2
		c-23-9.7-46.9-15.9-71-18.6c23.8,88.6,0.4,181.4-57.4,247.9c2.1,4.5,4.1,9.1,6,13.7c27.1,67,26.6,140.5-1.6,207
		c-4.9,11.5-10.5,22.6-16.8,33.1C530.3,692,577.7,687.8,622.8,669.5z"/>
	<path class="st2" d="M158.4,311.5c-33.8,13.8-63.5,34.3-87.9,60.1c27.3,51.7,71.2,92,125.8,114.9c23,9.7,46.9,15.8,71.1,18.4
		c-19.7-72.2-7.9-147.4,28.4-208.8c-14-2.4-28.1-3.6-42.3-3.5C221.3,292.6,189.1,298.9,158.4,311.5z"/>
	<path class="st1" d="M59.9,348.7c0.9,2.1,1.8,4.2,2.8,6.4c25.1-25.3,55.3-45.5,89.3-59.4c49.4-20.3,102.5-25.3,153.8-15.3
		c28.8-41.9,69.6-76.2,120.1-96.9c34-13.9,69.7-20.6,105.3-20.2c-0.8-2.2-1.6-4.3-2.5-6.5C488.5,58.6,393.3-0.9,293.2-0.6
		c-31.6,0.1-63.7,6.2-94.8,18.9C69.2,71.1,7,219.4,59.9,348.7z"/>
	<path class="st3" d="M390.1,487.3c34.3-14,63.8-34.8,87.8-60.2c-27.3-51.6-71.2-91.9-125.7-114.8c-12.6-5.3-25.6-9.5-38.6-12.7
		c-37.4,60.1-49.4,135-28.2,206.4C320.8,507.3,356.4,501.1,390.1,487.3z"/>
	<path class="st2" d="M527.4,180.4c-32.2,0.1-64.4,6.4-95.1,19c-45,18.4-81.9,48.5-108.6,85.2c11.9,3.2,23.6,7.1,35.1,12
		c56.2,23.6,101.8,64.6,131.1,117c52-63.5,71.6-150.6,47.1-233C533.8,180.5,530.6,180.4,527.4,180.4z"/>
</g>
</svg>
