<?xml version="1.0" encoding="utf-8"?>
<!-- Generator: Adobe Illustrator 26.0.1, SVG Export Plug-In . SVG Version: 6.00 Build 0)  -->
<svg version="1.1" id="Layer_1" focusable="false" xmlns="http://www.w3.org/2000/svg" xmlns:xlink="http://www.w3.org/1999/xlink"
	 x="0px" y="0px" viewBox="0 0 72 64" style="enable-background:new 0 0 72 64;" xml:space="preserve">
<style type="text/css">
	.st0{fill:#FFFFFF;}
</style>
<path class="st0" d="M43.9,30.5l-6.1,12.1c-0.7,1.5-2.9,1.4-3.5-0.1l-7-15.4l-3.7,8.8H12.1l22.3,22.8c0.9,0.9,2.3,0.9,3.1,0
	l22.3-22.8H46.6L43.9,30.5L43.9,30.5z M62.6,9.8l-0.3-0.3c-6.3-6.4-16.6-6.4-22.9,0L36,13l-3.4-3.5C26.3,3.1,16,3.1,9.7,9.5L9.4,9.8
	c-6,6.1-6.2,15.8-0.9,22.2H21l4.4-10.5c0.7-1.6,2.9-1.6,3.6,0l7.1,15.8l6-11.9c0.7-1.4,2.8-1.4,3.5,0L49,32h14.6
	C68.9,25.5,68.6,15.9,62.6,9.8L62.6,9.8z"/>
<path class="st0" d="M65.1,36.3L41.4,60.7C40,62.2,38,63,36,63c-2.1,0-4-0.8-5.4-2.3L6.9,36.3c-4-4.1-6.2-9.9-5.9-15.7
	c0.3-5.9,2.9-11.2,7.3-15c4-3.4,9-5,14.3-4.5c5,0.4,9.7,2.6,13.3,6.2c3.6-3.6,8.3-5.8,13.3-6.2c5.3-0.4,10.3,1.2,14.3,4.5l0,0
	c4.5,3.8,7.1,9.1,7.3,15C71.3,26.5,69.1,32.2,65.1,36.3z M72,0H0v64h72V0z"/>
</svg>
