<?xml version="1.0" encoding="utf-8"?>
<!-- Generator: Adobe Illustrator 25.2.0, SVG Export Plug-In . SVG Version: 6.00 Build 0)  -->
<svg version="1.1" id="Layer_1" xmlns="http://www.w3.org/2000/svg" xmlns:xlink="http://www.w3.org/1999/xlink" x="0px" y="0px"
	 viewBox="0 0 300 68.5" style="enable-background:new 0 0 300 68.5;" xml:space="preserve">
<style type="text/css">
	.st0{fill:#111111;}
</style>
<g>
	<g>
		<g>
			<g>
				<path class="st0" d="M173.76,1.53v14.86h-1.07V9.27h-9.38v7.12h-1.07V1.53h1.07v6.78h9.38V1.53L173.76,1.53L173.76,1.53z"/>
				<path class="st0" d="M182.31,1.53h0.92l6.28,14.86h-1.13l-2.07-4.9h-7.1l-2.07,4.9h-1.15L182.31,1.53z M186.02,10.61l-3.25-7.78
					l-3.31,7.78H186.02z"/>
				<path class="st0" d="M196.19,1.64h1.05l2.22,5.4l2.22-5.4h1.05l-2.62,6.26l3.12,7.24l5.7-13.6h1.17l-6.37,14.86h-0.98
					l-3.27-7.64l-3.29,7.64h-0.98l-6.35-14.86h1.15l5.72,13.6l3.08-7.24L196.19,1.64z"/>
				<path class="st0" d="M215.73,1.53h0.92l6.28,14.86h-1.13l-2.07-4.9h-7.1l-2.07,4.9h-1.15L215.73,1.53z M219.44,10.61l-3.25-7.78
					l-3.31,7.78H219.44z"/>
				<path class="st0" d="M225.19,16.39V1.53h1.07v14.86L225.19,16.39L225.19,16.39z"/>
				<path class="st0" d="M230.16,16.39V1.53h1.07v14.86L230.16,16.39L230.16,16.39z"/>
			</g>
			<g>
				<path class="st0" d="M162.25,35.13V20.27h1.05v14.86H162.25z"/>
				<path class="st0" d="M168.17,22.28v12.85h-1.05V20.26h0.8l10.25,13.08V20.26h1.05v14.86h-0.97L168.17,22.28z"/>
				<path class="st0" d="M183.03,35.13V20.27h9.51v0.96h-8.46v5.9h7.18v0.92h-7.18v7.07H183.03z"/>
				<path class="st0" d="M200.75,35.23c-1.01,0-1.94-0.22-2.78-0.65c-0.84-0.43-1.56-1-2.16-1.7c-0.6-0.7-1.07-1.5-1.4-2.41
					c-0.33-0.91-0.49-1.83-0.49-2.78c0-0.99,0.18-1.94,0.52-2.85s0.83-1.71,1.44-2.41c0.61-0.7,1.33-1.25,2.17-1.66
					c0.84-0.41,1.74-0.62,2.72-0.62c1.01,0,1.94,0.22,2.79,0.66c0.84,0.44,1.56,1.02,2.16,1.73c0.6,0.71,1.06,1.52,1.39,2.42
					c0.33,0.9,0.49,1.81,0.49,2.73c0,1-0.18,1.96-0.52,2.87s-0.83,1.71-1.44,2.4c-0.61,0.69-1.33,1.24-2.17,1.65
					C202.62,35.03,201.72,35.23,200.75,35.23z M194.96,27.7c0,0.85,0.14,1.67,0.42,2.46c0.28,0.79,0.68,1.48,1.19,2.09
					c0.52,0.61,1.13,1.09,1.84,1.45c0.71,0.36,1.5,0.55,2.35,0.55c0.88,0,1.67-0.19,2.38-0.57c0.71-0.38,1.31-0.88,1.81-1.5
					c0.5-0.62,0.89-1.32,1.16-2.1c0.27-0.78,0.41-1.58,0.41-2.39c0-0.85-0.14-1.67-0.43-2.46c-0.29-0.79-0.69-1.48-1.2-2.09
					c-0.52-0.61-1.12-1.09-1.82-1.45c-0.7-0.36-1.47-0.55-2.3-0.55c-0.88,0-1.67,0.19-2.39,0.57c-0.71,0.38-1.32,0.88-1.83,1.5
					c-0.51,0.62-0.9,1.32-1.17,2.1C195.1,26.09,194.96,26.89,194.96,27.7z"/>
				<path class="st0" d="M210.42,35.13V20.27h6.07c0.62,0,1.19,0.13,1.71,0.4c0.52,0.27,0.97,0.62,1.35,1.06
					c0.38,0.44,0.67,0.94,0.88,1.48c0.21,0.55,0.32,1.11,0.32,1.66c0,0.55-0.08,1.07-0.25,1.58c-0.16,0.51-0.4,0.97-0.7,1.37
					c-0.3,0.4-0.67,0.74-1.09,1c-0.43,0.27-0.89,0.44-1.4,0.52l3.64,5.78h-1.22l-3.54-5.61h-4.73v5.61L210.42,35.13L210.42,35.13z
					 M211.47,28.53h5.12c0.47,0,0.89-0.1,1.28-0.31c0.38-0.21,0.71-0.48,0.99-0.83c0.27-0.34,0.48-0.73,0.63-1.17
					c0.14-0.44,0.22-0.89,0.22-1.35c0-0.47-0.09-0.93-0.26-1.37c-0.17-0.44-0.4-0.83-0.7-1.16c-0.3-0.33-0.64-0.6-1.03-0.81
					c-0.39-0.2-0.81-0.3-1.27-0.3h-4.98V28.53z"/>
				<path class="st0" d="M237,35.13V22.28l-5.76,10.02h-0.66l-5.76-10.02v12.85h-1.05V20.26h1.05l6.09,10.63L237,20.26h1.05v14.86
					L237,35.13L237,35.13z"/>
				<path class="st0" d="M246.47,20.27h0.91l6.17,14.86h-1.11l-2.04-4.9h-6.98l-2.04,4.9h-1.13L246.47,20.27z M250.11,29.35
					l-3.19-7.78l-3.25,7.78H250.11z"/>
				<path class="st0" d="M264.54,21.23h-5.35v13.9h-1.05v-13.9h-5.35v-0.96h11.75L264.54,21.23L264.54,21.23z"/>
				<path class="st0" d="M266.8,35.13V20.27h1.05v14.86H266.8z"/>
				<path class="st0" d="M277.5,35.23c-1.01,0-1.94-0.22-2.78-0.65c-0.84-0.43-1.56-1-2.16-1.7c-0.6-0.7-1.07-1.5-1.4-2.41
					c-0.33-0.91-0.49-1.83-0.49-2.78c0-0.99,0.18-1.94,0.52-2.85c0.35-0.91,0.83-1.71,1.44-2.41c0.61-0.7,1.33-1.25,2.17-1.66
					c0.84-0.41,1.74-0.62,2.72-0.62c1.01,0,1.94,0.22,2.79,0.66c0.84,0.44,1.56,1.02,2.16,1.73c0.6,0.71,1.06,1.52,1.39,2.42
					c0.33,0.9,0.49,1.81,0.49,2.73c0,1-0.18,1.96-0.52,2.87c-0.35,0.91-0.83,1.71-1.44,2.4c-0.61,0.69-1.33,1.24-2.17,1.65
					C279.38,35.03,278.47,35.23,277.5,35.23z M271.71,27.7c0,0.85,0.14,1.67,0.42,2.46c0.28,0.79,0.68,1.48,1.19,2.09
					c0.52,0.61,1.13,1.09,1.84,1.45c0.71,0.36,1.5,0.55,2.35,0.55c0.88,0,1.67-0.19,2.38-0.57c0.71-0.38,1.31-0.88,1.81-1.5
					c0.5-0.62,0.89-1.32,1.16-2.1c0.27-0.78,0.41-1.58,0.41-2.39c0-0.85-0.14-1.67-0.43-2.46c-0.29-0.79-0.69-1.48-1.2-2.09
					s-1.12-1.09-1.82-1.45c-0.7-0.36-1.47-0.55-2.3-0.55c-0.88,0-1.67,0.19-2.39,0.57c-0.71,0.38-1.32,0.88-1.83,1.5
					s-0.9,1.32-1.17,2.1C271.85,26.09,271.71,26.89,271.71,27.7z"/>
				<path class="st0" d="M288.22,22.28v12.85h-1.05V20.26h0.8l10.25,13.08V20.26h1.05v14.86h-0.97L288.22,22.28z"/>
			</g>
			<g>
				<path class="st0" d="M162.25,46.32c0-0.89,0.16-1.78,0.47-2.67c0.31-0.89,0.77-1.68,1.37-2.38c0.6-0.7,1.34-1.27,2.21-1.71
					c0.87-0.44,1.87-0.66,2.98-0.66c1.33,0,2.46,0.3,3.39,0.91c0.94,0.61,1.63,1.39,2.09,2.33l-0.88,0.5
					c-0.27-0.51-0.58-0.95-0.93-1.3c-0.36-0.35-0.74-0.63-1.15-0.85c-0.41-0.22-0.84-0.37-1.29-0.47c-0.45-0.1-0.89-0.15-1.32-0.15
					c-0.95,0-1.79,0.19-2.51,0.58c-0.73,0.38-1.34,0.88-1.84,1.5c-0.5,0.61-0.88,1.31-1.14,2.08c-0.26,0.77-0.39,1.55-0.39,2.33
					c0,0.88,0.15,1.72,0.46,2.51c0.31,0.79,0.73,1.5,1.26,2.1c0.53,0.61,1.16,1.09,1.89,1.45c0.73,0.36,1.51,0.55,2.35,0.55
					c0.45,0,0.91-0.06,1.38-0.17s0.93-0.29,1.36-0.52s0.84-0.54,1.22-0.91c0.38-0.37,0.69-0.81,0.94-1.31l0.92,0.44
					c-0.25,0.56-0.59,1.05-1.03,1.48c-0.43,0.43-0.92,0.79-1.44,1.09c-0.53,0.29-1.09,0.51-1.68,0.66
					c-0.59,0.15-1.18,0.22-1.75,0.22c-1.02,0-1.95-0.22-2.8-0.67c-0.85-0.45-1.57-1.03-2.19-1.75s-1.09-1.54-1.43-2.45
					C162.42,48.2,162.25,47.27,162.25,46.32z"/>
				<path class="st0" d="M183.5,53.96c-1.03,0-1.98-0.22-2.83-0.65s-1.59-1-2.2-1.7c-0.61-0.7-1.09-1.5-1.42-2.41
					c-0.34-0.91-0.5-1.83-0.5-2.78c0-0.99,0.18-1.94,0.53-2.85s0.84-1.71,1.46-2.41c0.62-0.7,1.36-1.25,2.21-1.66
					c0.85-0.41,1.77-0.62,2.76-0.62c1.03,0,1.98,0.22,2.84,0.66c0.86,0.44,1.59,1.02,2.2,1.73c0.61,0.71,1.08,1.52,1.41,2.42
					c0.34,0.9,0.5,1.81,0.5,2.73c0,1-0.18,1.96-0.53,2.87c-0.36,0.91-0.85,1.71-1.46,2.4c-0.62,0.69-1.36,1.24-2.21,1.65
					C185.41,53.75,184.49,53.96,183.5,53.96z M177.62,46.42c0,0.85,0.14,1.67,0.43,2.46c0.29,0.79,0.69,1.48,1.22,2.09
					c0.52,0.61,1.15,1.09,1.87,1.45c0.73,0.36,1.52,0.55,2.39,0.55c0.89,0,1.7-0.19,2.42-0.57c0.72-0.38,1.33-0.88,1.84-1.5
					c0.51-0.62,0.9-1.32,1.18-2.1c0.28-0.78,0.42-1.58,0.42-2.39c0-0.85-0.15-1.67-0.44-2.46c-0.29-0.79-0.7-1.48-1.22-2.09
					c-0.52-0.61-1.14-1.09-1.85-1.45c-0.71-0.36-1.5-0.55-2.35-0.55c-0.89,0-1.7,0.19-2.43,0.57c-0.73,0.38-1.35,0.88-1.86,1.5
					s-0.92,1.32-1.19,2.1C177.76,44.82,177.62,45.61,177.62,46.42z"/>
				<path class="st0" d="M194.41,41v12.85h-1.07V39h0.82l10.43,13.08V39h1.07v14.86h-0.98L194.41,41z"/>
				<path class="st0" d="M218.18,41.46c-0.96-1.07-2.32-1.61-4.08-1.61c-1.45,0-2.51,0.27-3.17,0.83c-0.66,0.55-0.99,1.29-0.99,2.23
					c0,0.47,0.08,0.87,0.25,1.18c0.17,0.31,0.43,0.58,0.79,0.81s0.81,0.41,1.35,0.57c0.55,0.15,1.2,0.31,1.97,0.48
					c0.79,0.17,1.52,0.35,2.17,0.55c0.65,0.2,1.2,0.46,1.65,0.76c0.45,0.31,0.8,0.68,1.05,1.13c0.24,0.45,0.37,1,0.37,1.65
					c0,0.66-0.13,1.23-0.39,1.72c-0.26,0.49-0.62,0.9-1.09,1.22c-0.47,0.33-1.03,0.58-1.68,0.74c-0.65,0.17-1.37,0.25-2.17,0.25
					c-2.32,0-4.28-0.74-5.89-2.22l0.57-0.86c0.63,0.66,1.4,1.18,2.3,1.56s1.93,0.58,3.06,0.58c1.3,0,2.31-0.24,3.05-0.71
					s1.1-1.19,1.1-2.15c0-0.49-0.1-0.9-0.29-1.24c-0.2-0.34-0.49-0.64-0.87-0.89c-0.38-0.25-0.87-0.47-1.46-0.65
					c-0.59-0.18-1.27-0.36-2.05-0.52c-0.79-0.17-1.5-0.34-2.11-0.53s-1.12-0.42-1.53-0.71s-0.72-0.63-0.93-1.04
					c-0.21-0.4-0.31-0.91-0.31-1.53c0-0.67,0.13-1.26,0.39-1.78c0.26-0.51,0.62-0.95,1.08-1.31c0.46-0.36,1.01-0.62,1.65-0.81
					c0.64-0.18,1.35-0.27,2.14-0.27c0.96,0,1.82,0.14,2.58,0.43c0.75,0.29,1.44,0.72,2.05,1.31L218.18,41.46z"/>
				<path class="st0" d="M228.13,53.96c-1.03,0-1.98-0.22-2.83-0.65s-1.59-1-2.2-1.7c-0.61-0.7-1.09-1.5-1.42-2.41
					c-0.34-0.91-0.5-1.83-0.5-2.78c0-0.99,0.18-1.94,0.53-2.85c0.36-0.91,0.84-1.71,1.46-2.41c0.62-0.7,1.36-1.25,2.21-1.66
					c0.85-0.41,1.77-0.62,2.76-0.62c1.03,0,1.98,0.22,2.84,0.66c0.86,0.44,1.59,1.02,2.2,1.73c0.61,0.71,1.08,1.52,1.41,2.42
					c0.34,0.9,0.5,1.81,0.5,2.73c0,1-0.18,1.96-0.53,2.87c-0.36,0.91-0.85,1.71-1.46,2.4c-0.62,0.69-1.36,1.24-2.21,1.65
					C230.04,53.75,229.12,53.96,228.13,53.96z M222.24,46.42c0,0.85,0.14,1.67,0.43,2.46c0.29,0.79,0.69,1.48,1.22,2.09
					s1.15,1.09,1.87,1.45c0.73,0.36,1.52,0.55,2.39,0.55c0.89,0,1.7-0.19,2.42-0.57c0.72-0.38,1.33-0.88,1.84-1.5
					c0.51-0.62,0.9-1.32,1.18-2.1c0.28-0.78,0.42-1.58,0.42-2.39c0-0.85-0.15-1.67-0.44-2.46c-0.29-0.79-0.7-1.48-1.22-2.09
					c-0.52-0.61-1.14-1.09-1.85-1.45c-0.71-0.36-1.5-0.55-2.35-0.55c-0.89,0-1.7,0.19-2.43,0.57c-0.73,0.38-1.35,0.88-1.86,1.5
					s-0.92,1.32-1.19,2.1C222.38,44.82,222.24,45.61,222.24,46.42z"/>
				<path class="st0" d="M237.97,53.85V39h6.18c0.63,0,1.21,0.13,1.74,0.4c0.53,0.27,0.99,0.62,1.37,1.06
					c0.38,0.44,0.68,0.94,0.9,1.48c0.22,0.55,0.33,1.11,0.33,1.66c0,0.55-0.08,1.07-0.25,1.58c-0.17,0.51-0.4,0.97-0.71,1.37
					c-0.31,0.4-0.68,0.74-1.11,1c-0.43,0.27-0.91,0.44-1.42,0.52l3.71,5.78h-1.24l-3.6-5.61h-4.82v5.61L237.97,53.85L237.97,53.85z
					 M239.04,47.26h5.22c0.47,0,0.91-0.1,1.3-0.31c0.39-0.21,0.73-0.48,1.01-0.83s0.49-0.73,0.64-1.17
					c0.15-0.44,0.22-0.89,0.22-1.35c0-0.47-0.09-0.93-0.26-1.37c-0.18-0.44-0.41-0.83-0.71-1.16c-0.3-0.33-0.65-0.6-1.05-0.81
					c-0.4-0.2-0.83-0.3-1.29-0.3h-5.07L239.04,47.26L239.04,47.26z"/>
				<path class="st0" d="M261.72,39.96h-5.44v13.9h-1.07v-13.9h-5.44v-0.96h11.96L261.72,39.96L261.72,39.96z"/>
				<path class="st0" d="M264.02,53.85V39h1.07v14.86H264.02z"/>
				<path class="st0" d="M274.95,52.97c1.01,0,1.84-0.19,2.5-0.57s1.19-0.87,1.57-1.48c0.38-0.61,0.66-1.31,0.82-2.09
					c0.16-0.78,0.24-1.57,0.24-2.36V39h1.07v7.47c0,0.99-0.11,1.94-0.33,2.85c-0.22,0.91-0.57,1.71-1.06,2.4
					c-0.49,0.69-1.12,1.24-1.91,1.64c-0.78,0.4-1.74,0.61-2.89,0.61c-1.19,0-2.18-0.21-2.97-0.64s-1.43-0.99-1.92-1.7
					c-0.48-0.7-0.82-1.5-1.03-2.4c-0.2-0.89-0.3-1.81-0.3-2.76V39h1.07v7.47c0,0.82,0.08,1.63,0.24,2.41
					c0.16,0.78,0.44,1.48,0.84,2.08s0.92,1.09,1.58,1.46C273.14,52.79,273.96,52.97,274.95,52.97z"/>
				<path class="st0" d="M298.28,53.85V41l-5.86,10.02h-0.67L285.88,41v12.85h-1.07V39h1.07l6.2,10.63l6.2-10.63h1.07v14.86H298.28z
					"/>
			</g>
		</g>
		<g>
			<path class="st0" d="M163.6,65.98c-0.03,0.01-0.07,0.04-0.13,0.07c-0.06,0.04-0.14,0.07-0.24,0.1c-0.09,0.03-0.2,0.06-0.32,0.09
				s-0.25,0.04-0.39,0.04s-0.27-0.02-0.39-0.06c-0.12-0.04-0.23-0.1-0.32-0.18s-0.16-0.18-0.22-0.29c-0.05-0.11-0.08-0.24-0.08-0.39
				v-3.87h-0.72v-0.4h0.72v-1.76h0.49v1.76h1.2v0.4h-1.2v3.76c0,0.19,0.06,0.33,0.2,0.43c0.13,0.09,0.28,0.14,0.45,0.14
				c0.2,0,0.38-0.03,0.53-0.1c0.15-0.07,0.24-0.11,0.27-0.13L163.6,65.98z"/>
			<path class="st0" d="M168.67,66.22h-0.49v-2.87c0-1.27-0.43-1.91-1.28-1.91c-0.21,0-0.42,0.04-0.62,0.12
				c-0.2,0.08-0.39,0.19-0.56,0.33c-0.18,0.15-0.33,0.31-0.46,0.51c-0.13,0.19-0.23,0.4-0.3,0.63v3.18h-0.49V59h0.49v3.3
				c0.21-0.4,0.5-0.72,0.88-0.96c0.37-0.24,0.77-0.36,1.2-0.36c0.28,0,0.53,0.05,0.73,0.16c0.2,0.11,0.37,0.26,0.51,0.45
				c0.14,0.2,0.23,0.44,0.3,0.72c0.06,0.28,0.09,0.6,0.09,0.94L168.67,66.22L168.67,66.22z"/>
			<path class="st0" d="M172.35,66.32c-0.36,0-0.7-0.07-1.01-0.21s-0.58-0.33-0.81-0.58c-0.23-0.25-0.41-0.53-0.53-0.85
				c-0.13-0.32-0.19-0.67-0.19-1.04c0-0.36,0.06-0.7,0.19-1.02c0.13-0.32,0.31-0.6,0.53-0.84c0.22-0.24,0.49-0.43,0.79-0.57
				c0.31-0.14,0.64-0.21,0.99-0.21c0.36,0,0.7,0.07,1.01,0.21c0.31,0.14,0.58,0.33,0.8,0.57c0.22,0.24,0.4,0.52,0.52,0.84
				c0.12,0.32,0.19,0.66,0.19,1.01c0,0.03,0,0.07,0,0.12c0,0.05,0,0.08-0.01,0.09h-4.51c0.02,0.3,0.09,0.57,0.21,0.82
				c0.12,0.25,0.27,0.47,0.45,0.66s0.39,0.33,0.63,0.43c0.24,0.11,0.49,0.16,0.76,0.16c0.18,0,0.35-0.03,0.52-0.07
				s0.33-0.12,0.48-0.2c0.15-0.09,0.28-0.19,0.4-0.31c0.12-0.12,0.21-0.26,0.27-0.4l0.43,0.12c-0.07,0.18-0.18,0.35-0.32,0.51
				c-0.14,0.15-0.31,0.29-0.49,0.4c-0.19,0.11-0.4,0.2-0.62,0.26C172.82,66.29,172.59,66.32,172.35,66.32z M174.37,63.45
				c-0.02-0.3-0.09-0.58-0.2-0.83s-0.26-0.47-0.45-0.65c-0.18-0.18-0.39-0.32-0.63-0.42c-0.24-0.1-0.49-0.15-0.76-0.15
				c-0.27,0-0.52,0.05-0.76,0.15c-0.24,0.1-0.45,0.24-0.63,0.42c-0.18,0.18-0.33,0.4-0.43,0.65c-0.11,0.25-0.17,0.53-0.19,0.82
				H174.37z"/>
			<path class="st0" d="M180.98,66.32c-0.44,0-0.84-0.12-1.18-0.35c-0.35-0.23-0.62-0.52-0.84-0.85v3.21h-0.49v-7.24h0.46v1.03
				c0.21-0.33,0.49-0.6,0.84-0.81c0.35-0.21,0.72-0.31,1.11-0.31c0.36,0,0.69,0.08,0.99,0.23c0.3,0.15,0.56,0.35,0.78,0.6
				s0.39,0.53,0.51,0.85c0.12,0.32,0.18,0.65,0.18,0.99c0,0.36-0.06,0.7-0.17,1.02c-0.11,0.32-0.27,0.61-0.48,0.85
				c-0.21,0.24-0.46,0.44-0.75,0.58C181.65,66.25,181.33,66.32,180.98,66.32z M180.86,65.88c0.3,0,0.57-0.06,0.81-0.19
				s0.45-0.29,0.62-0.5c0.17-0.21,0.3-0.44,0.4-0.71c0.09-0.27,0.14-0.54,0.14-0.82c0-0.3-0.05-0.58-0.16-0.85
				c-0.11-0.27-0.25-0.5-0.44-0.71c-0.19-0.2-0.41-0.37-0.66-0.49c-0.25-0.12-0.52-0.18-0.8-0.18c-0.18,0-0.37,0.04-0.57,0.11
				c-0.2,0.08-0.39,0.18-0.57,0.31s-0.33,0.27-0.46,0.44c-0.12,0.16-0.2,0.34-0.22,0.52v1.69c0.09,0.19,0.19,0.37,0.33,0.53
				c0.13,0.16,0.28,0.31,0.44,0.43c0.16,0.12,0.34,0.22,0.53,0.29C180.46,65.84,180.66,65.88,180.86,65.88z"/>
			<path class="st0" d="M186.71,66.32c-0.36,0-0.7-0.07-1.01-0.21s-0.58-0.33-0.81-0.58c-0.23-0.25-0.41-0.53-0.53-0.85
				c-0.13-0.32-0.19-0.67-0.19-1.04c0-0.36,0.06-0.7,0.19-1.02c0.13-0.32,0.31-0.6,0.53-0.84c0.22-0.24,0.49-0.43,0.79-0.57
				c0.31-0.14,0.64-0.21,0.99-0.21c0.36,0,0.7,0.07,1.01,0.21c0.31,0.14,0.58,0.33,0.8,0.57c0.22,0.24,0.4,0.52,0.52,0.84
				c0.12,0.32,0.19,0.66,0.19,1.01c0,0.03,0,0.07,0,0.12c0,0.05,0,0.08-0.01,0.09h-4.51c0.02,0.3,0.09,0.57,0.21,0.82
				c0.12,0.25,0.27,0.47,0.45,0.66c0.18,0.18,0.39,0.33,0.63,0.43c0.24,0.11,0.49,0.16,0.76,0.16c0.18,0,0.35-0.03,0.52-0.07
				s0.33-0.12,0.48-0.2c0.15-0.09,0.28-0.19,0.4-0.31c0.12-0.12,0.21-0.26,0.27-0.4l0.43,0.12c-0.07,0.18-0.18,0.35-0.32,0.51
				c-0.14,0.15-0.31,0.29-0.49,0.4c-0.19,0.11-0.4,0.2-0.62,0.26C187.18,66.29,186.94,66.32,186.71,66.32z M188.72,63.45
				c-0.02-0.3-0.09-0.58-0.2-0.83c-0.12-0.25-0.26-0.47-0.45-0.65c-0.18-0.18-0.39-0.32-0.63-0.42c-0.24-0.1-0.49-0.15-0.76-0.15
				s-0.52,0.05-0.76,0.15c-0.24,0.1-0.45,0.24-0.63,0.42c-0.18,0.18-0.33,0.4-0.43,0.65c-0.11,0.25-0.17,0.53-0.19,0.82H188.72z"/>
			<path class="st0" d="M192.44,66.32c-0.36,0-0.7-0.07-1-0.21c-0.31-0.14-0.57-0.33-0.8-0.58c-0.22-0.24-0.4-0.53-0.52-0.85
				c-0.12-0.32-0.19-0.66-0.19-1.02c0-0.36,0.06-0.7,0.19-1.03c0.13-0.32,0.31-0.61,0.53-0.85c0.22-0.24,0.49-0.44,0.79-0.58
				c0.31-0.14,0.64-0.21,0.99-0.21c0.36,0,0.69,0.07,0.99,0.21c0.3,0.14,0.57,0.33,0.8,0.58c0.23,0.24,0.4,0.53,0.53,0.85
				c0.13,0.32,0.19,0.67,0.19,1.03c0,0.36-0.06,0.7-0.19,1.02c-0.13,0.32-0.31,0.61-0.53,0.85c-0.22,0.24-0.49,0.44-0.8,0.58
				C193.13,66.25,192.8,66.32,192.44,66.32z M190.42,63.68c0,0.3,0.05,0.59,0.16,0.85c0.1,0.27,0.25,0.5,0.43,0.7
				c0.18,0.2,0.4,0.35,0.64,0.47c0.24,0.12,0.5,0.17,0.78,0.17c0.28,0,0.54-0.06,0.78-0.17c0.24-0.12,0.46-0.27,0.64-0.48
				c0.18-0.2,0.33-0.44,0.43-0.71c0.11-0.27,0.16-0.55,0.16-0.86c0-0.3-0.05-0.59-0.16-0.85c-0.11-0.27-0.25-0.5-0.43-0.7
				c-0.18-0.2-0.4-0.36-0.64-0.48c-0.24-0.12-0.5-0.18-0.78-0.18s-0.54,0.06-0.78,0.18c-0.24,0.12-0.46,0.28-0.64,0.48
				c-0.18,0.2-0.33,0.44-0.43,0.72C190.48,63.09,190.42,63.38,190.42,63.68z"/>
			<path class="st0" d="M198.65,66.32c-0.44,0-0.84-0.12-1.18-0.35c-0.35-0.23-0.62-0.52-0.84-0.85v3.21h-0.49v-7.24h0.46v1.03
				c0.21-0.33,0.49-0.6,0.84-0.81c0.35-0.21,0.72-0.31,1.11-0.31c0.36,0,0.69,0.08,0.99,0.23c0.3,0.15,0.56,0.35,0.78,0.6
				s0.39,0.53,0.51,0.85c0.12,0.32,0.18,0.65,0.18,0.99c0,0.36-0.06,0.7-0.17,1.02c-0.11,0.32-0.27,0.61-0.48,0.85
				c-0.21,0.24-0.46,0.44-0.75,0.58C199.32,66.25,199,66.32,198.65,66.32z M198.53,65.88c0.3,0,0.57-0.06,0.81-0.19
				s0.45-0.29,0.62-0.5c0.17-0.21,0.3-0.44,0.4-0.71c0.09-0.27,0.14-0.54,0.14-0.82c0-0.3-0.05-0.58-0.16-0.85
				c-0.11-0.27-0.25-0.5-0.44-0.71c-0.19-0.2-0.41-0.37-0.66-0.49c-0.25-0.12-0.52-0.18-0.8-0.18c-0.18,0-0.37,0.04-0.57,0.11
				c-0.2,0.08-0.39,0.18-0.57,0.31s-0.33,0.27-0.46,0.44c-0.12,0.16-0.2,0.34-0.22,0.52v1.69c0.09,0.19,0.19,0.37,0.33,0.53
				c0.13,0.16,0.28,0.31,0.44,0.43c0.16,0.12,0.34,0.22,0.53,0.29C198.13,65.84,198.33,65.88,198.53,65.88z"/>
			<path class="st0" d="M202.23,59.01h0.5v6.2c0,0.19,0.06,0.34,0.16,0.45c0.11,0.11,0.26,0.17,0.45,0.17
				c0.07,0,0.16-0.01,0.26-0.03c0.1-0.02,0.2-0.04,0.28-0.07l0.1,0.39c-0.11,0.05-0.25,0.08-0.42,0.11
				c-0.17,0.03-0.31,0.04-0.43,0.04c-0.28,0-0.5-0.08-0.67-0.25c-0.17-0.17-0.25-0.39-0.25-0.68L202.23,59.01L202.23,59.01z"/>
			<path class="st0" d="M206.94,66.32c-0.36,0-0.7-0.07-1.01-0.21c-0.31-0.14-0.58-0.33-0.81-0.58c-0.23-0.25-0.41-0.53-0.53-0.85
				c-0.13-0.32-0.19-0.67-0.19-1.04c0-0.36,0.06-0.7,0.19-1.02c0.13-0.32,0.31-0.6,0.53-0.84c0.22-0.24,0.49-0.43,0.79-0.57
				c0.31-0.14,0.64-0.21,0.99-0.21c0.36,0,0.7,0.07,1.01,0.21c0.31,0.14,0.58,0.33,0.8,0.57c0.22,0.24,0.4,0.52,0.52,0.84
				c0.12,0.32,0.19,0.66,0.19,1.01c0,0.03,0,0.07,0,0.12c0,0.05,0,0.08-0.01,0.09h-4.51c0.02,0.3,0.09,0.57,0.21,0.82
				c0.12,0.25,0.27,0.47,0.45,0.66c0.18,0.18,0.39,0.33,0.63,0.43c0.24,0.11,0.49,0.16,0.76,0.16c0.18,0,0.35-0.03,0.52-0.07
				s0.33-0.12,0.48-0.2c0.15-0.09,0.28-0.19,0.4-0.31c0.12-0.12,0.21-0.26,0.27-0.4l0.43,0.12c-0.07,0.18-0.18,0.35-0.32,0.51
				c-0.14,0.15-0.31,0.29-0.49,0.4c-0.19,0.11-0.4,0.2-0.62,0.26C207.41,66.29,207.18,66.32,206.94,66.32z M208.96,63.45
				c-0.02-0.3-0.09-0.58-0.2-0.83c-0.12-0.25-0.26-0.47-0.45-0.65c-0.18-0.18-0.39-0.32-0.63-0.42s-0.49-0.15-0.76-0.15
				c-0.27,0-0.52,0.05-0.76,0.15c-0.24,0.1-0.45,0.24-0.63,0.42c-0.18,0.18-0.33,0.4-0.43,0.65c-0.11,0.25-0.17,0.53-0.19,0.82
				H208.96z"/>
			<path class="st0" d="M215.46,66.32c-0.4,0-0.78-0.11-1.13-0.32c-0.35-0.21-0.62-0.48-0.82-0.81v1.03h-0.46v-7.21h0.49v3.19
				c0.24-0.36,0.53-0.65,0.86-0.87c0.33-0.22,0.72-0.34,1.15-0.34c0.36,0,0.69,0.08,0.98,0.23c0.29,0.15,0.54,0.36,0.74,0.61
				c0.2,0.25,0.36,0.54,0.46,0.86c0.11,0.32,0.16,0.64,0.16,0.97c0,0.36-0.06,0.69-0.19,1.01c-0.12,0.32-0.3,0.6-0.52,0.84
				c-0.22,0.24-0.48,0.43-0.78,0.58C216.14,66.25,215.81,66.32,215.46,66.32z M215.36,65.88c0.3,0,0.58-0.06,0.83-0.19
				c0.25-0.12,0.47-0.29,0.65-0.5c0.18-0.21,0.32-0.44,0.43-0.71s0.15-0.53,0.15-0.81c0-0.29-0.05-0.57-0.14-0.84
				c-0.09-0.27-0.23-0.5-0.41-0.71s-0.38-0.37-0.62-0.5c-0.24-0.12-0.51-0.19-0.8-0.19c-0.22,0-0.42,0.04-0.61,0.11
				c-0.19,0.08-0.37,0.18-0.53,0.3c-0.16,0.12-0.31,0.27-0.43,0.43c-0.13,0.16-0.24,0.34-0.32,0.51v1.7
				c0.02,0.19,0.09,0.37,0.22,0.54c0.12,0.17,0.27,0.31,0.45,0.43c0.18,0.12,0.37,0.22,0.57,0.29
				C214.99,65.84,215.19,65.88,215.36,65.88z"/>
			<path class="st0" d="M221.3,66.32c-0.36,0-0.7-0.07-1.01-0.21c-0.31-0.14-0.58-0.33-0.81-0.58c-0.23-0.25-0.41-0.53-0.53-0.85
				c-0.13-0.32-0.19-0.67-0.19-1.04c0-0.36,0.06-0.7,0.19-1.02c0.13-0.32,0.3-0.6,0.53-0.84c0.22-0.24,0.49-0.43,0.79-0.57
				c0.31-0.14,0.64-0.21,0.99-0.21c0.36,0,0.7,0.07,1.01,0.21c0.31,0.14,0.58,0.33,0.8,0.57c0.22,0.24,0.4,0.52,0.52,0.84
				c0.12,0.32,0.19,0.66,0.19,1.01c0,0.03,0,0.07,0,0.12c0,0.05,0,0.08-0.01,0.09h-4.51c0.02,0.3,0.09,0.57,0.21,0.82
				c0.12,0.25,0.27,0.47,0.45,0.66c0.18,0.18,0.39,0.33,0.63,0.43c0.24,0.11,0.49,0.16,0.76,0.16c0.18,0,0.35-0.03,0.52-0.07
				c0.17-0.05,0.33-0.12,0.48-0.2c0.15-0.09,0.28-0.19,0.4-0.31c0.12-0.12,0.21-0.26,0.27-0.4l0.43,0.12
				c-0.07,0.18-0.18,0.35-0.32,0.51c-0.14,0.15-0.31,0.29-0.49,0.4c-0.19,0.11-0.39,0.2-0.62,0.26
				C221.76,66.29,221.53,66.32,221.3,66.32z M223.31,63.45c-0.02-0.3-0.09-0.58-0.2-0.83c-0.12-0.25-0.26-0.47-0.45-0.65
				c-0.18-0.18-0.39-0.32-0.63-0.42c-0.24-0.1-0.49-0.15-0.76-0.15s-0.52,0.05-0.76,0.15s-0.45,0.24-0.63,0.42
				c-0.18,0.18-0.33,0.4-0.43,0.65c-0.11,0.25-0.17,0.53-0.19,0.82H223.31z"/>
			<path class="st0" d="M229.08,66.22h-0.49v-2.87c0-1.27-0.43-1.91-1.28-1.91c-0.21,0-0.42,0.04-0.62,0.12
				c-0.2,0.08-0.39,0.19-0.56,0.33c-0.18,0.15-0.33,0.31-0.46,0.51c-0.13,0.19-0.23,0.4-0.3,0.63v3.18h-0.49V59h0.49v3.3
				c0.21-0.4,0.5-0.72,0.88-0.96c0.37-0.24,0.77-0.36,1.2-0.36c0.28,0,0.53,0.05,0.73,0.16c0.2,0.11,0.37,0.26,0.51,0.45
				c0.14,0.2,0.23,0.44,0.3,0.72c0.06,0.28,0.09,0.6,0.09,0.94V66.22z"/>
			<path class="st0" d="M230.57,59.92v-0.91h0.49v0.91H230.57z M230.57,66.22v-5.14h0.49v5.14H230.57z"/>
			<path class="st0" d="M236.82,66.22h-0.49v-2.87c0-0.67-0.09-1.15-0.28-1.45c-0.19-0.3-0.49-0.45-0.89-0.45
				c-0.22,0-0.43,0.04-0.65,0.12c-0.21,0.08-0.41,0.19-0.6,0.33c-0.18,0.15-0.35,0.31-0.49,0.51c-0.14,0.19-0.24,0.4-0.31,0.63v3.18
				h-0.49v-5.14h0.46v1.23c0.11-0.2,0.24-0.38,0.39-0.54c0.15-0.16,0.33-0.3,0.52-0.42s0.4-0.2,0.62-0.27
				c0.22-0.06,0.44-0.09,0.67-0.09c0.56,0,0.96,0.2,1.19,0.59c0.23,0.39,0.35,0.95,0.35,1.69L236.82,66.22L236.82,66.22z"/>
			<path class="st0" d="M240.43,66.32c-0.36,0-0.69-0.07-0.99-0.22c-0.3-0.15-0.57-0.35-0.79-0.59c-0.22-0.25-0.39-0.53-0.52-0.85
				c-0.12-0.32-0.18-0.65-0.18-0.99c0-0.36,0.06-0.7,0.18-1.02c0.12-0.32,0.28-0.61,0.49-0.85c0.21-0.24,0.46-0.44,0.75-0.58
				c0.29-0.15,0.6-0.22,0.95-0.22c0.22,0,0.43,0.03,0.63,0.1s0.38,0.15,0.55,0.26c0.17,0.11,0.33,0.24,0.46,0.38
				c0.14,0.15,0.26,0.3,0.36,0.46v-3.19h0.49v6.52c0,0.16,0.07,0.25,0.21,0.25v0.45c-0.04,0.01-0.07,0.01-0.1,0.01
				c-0.03,0-0.05,0-0.08,0c-0.13,0-0.24-0.05-0.34-0.15c-0.09-0.1-0.14-0.21-0.14-0.32v-0.57c-0.21,0.34-0.49,0.62-0.85,0.82
				C241.18,66.22,240.81,66.32,240.43,66.32z M240.52,65.88c0.18,0,0.37-0.04,0.57-0.11c0.2-0.07,0.39-0.17,0.57-0.3
				s0.33-0.27,0.45-0.44c0.12-0.16,0.2-0.34,0.22-0.53V62.8c-0.07-0.18-0.18-0.36-0.31-0.53c-0.14-0.17-0.29-0.31-0.46-0.43
				s-0.36-0.22-0.55-0.29c-0.2-0.07-0.39-0.11-0.57-0.11c-0.3,0-0.57,0.06-0.81,0.19c-0.24,0.13-0.45,0.3-0.62,0.5
				c-0.17,0.21-0.3,0.45-0.4,0.71c-0.09,0.27-0.14,0.54-0.14,0.82c0,0.3,0.05,0.58,0.16,0.84c0.11,0.26,0.25,0.5,0.44,0.7
				c0.19,0.2,0.4,0.36,0.65,0.48C239.96,65.82,240.23,65.88,240.52,65.88z"/>
			<path class="st0" d="M249.12,66.32c-0.36,0-0.7-0.07-1.01-0.21c-0.31-0.14-0.58-0.33-0.81-0.58c-0.23-0.25-0.41-0.53-0.53-0.85
				c-0.13-0.32-0.19-0.67-0.19-1.04c0-0.36,0.06-0.7,0.19-1.02c0.13-0.32,0.3-0.6,0.53-0.84c0.22-0.24,0.49-0.43,0.79-0.57
				c0.31-0.14,0.64-0.21,0.99-0.21c0.36,0,0.7,0.07,1.01,0.21c0.31,0.14,0.58,0.33,0.8,0.57c0.22,0.24,0.4,0.52,0.52,0.84
				c0.12,0.32,0.19,0.66,0.19,1.01c0,0.03,0,0.07,0,0.12c0,0.05,0,0.08-0.01,0.09h-4.51c0.02,0.3,0.09,0.57,0.21,0.82
				c0.12,0.25,0.27,0.47,0.45,0.66c0.18,0.18,0.39,0.33,0.63,0.43c0.24,0.11,0.49,0.16,0.76,0.16c0.18,0,0.35-0.03,0.52-0.07
				s0.33-0.12,0.48-0.2c0.15-0.09,0.28-0.19,0.4-0.31c0.12-0.12,0.21-0.26,0.27-0.4l0.43,0.12c-0.07,0.18-0.18,0.35-0.32,0.51
				c-0.14,0.15-0.31,0.29-0.49,0.4c-0.19,0.11-0.4,0.2-0.62,0.26C249.59,66.29,249.36,66.32,249.12,66.32z M251.14,63.45
				c-0.02-0.3-0.09-0.58-0.2-0.83s-0.26-0.47-0.45-0.65c-0.18-0.18-0.39-0.32-0.63-0.42s-0.49-0.15-0.76-0.15
				c-0.27,0-0.52,0.05-0.76,0.15s-0.45,0.24-0.63,0.42c-0.18,0.18-0.33,0.4-0.43,0.65c-0.11,0.25-0.17,0.53-0.19,0.82H251.14z"/>
			<path class="st0" d="M258.24,59.2v7.02h-0.5v-3.36h-4.43v3.36h-0.5V59.2h0.5v3.2h4.43v-3.2H258.24z"/>
			<path class="st0" d="M261.14,66.32c-0.24,0-0.46-0.04-0.66-0.12c-0.2-0.08-0.38-0.19-0.54-0.34c-0.15-0.14-0.27-0.31-0.36-0.5
				c-0.09-0.19-0.13-0.4-0.13-0.63c0-0.22,0.05-0.43,0.16-0.61c0.11-0.18,0.25-0.34,0.44-0.48c0.19-0.14,0.41-0.24,0.68-0.32
				s0.55-0.11,0.87-0.11c0.28,0,0.55,0.03,0.84,0.07c0.28,0.05,0.53,0.12,0.76,0.2v-0.5c0-0.49-0.14-0.88-0.42-1.16
				c-0.28-0.29-0.65-0.43-1.13-0.43c-0.25,0-0.52,0.05-0.8,0.16c-0.28,0.11-0.57,0.26-0.85,0.45l-0.19-0.34
				c0.66-0.45,1.28-0.67,1.88-0.67c0.62,0,1.11,0.18,1.46,0.54c0.36,0.36,0.53,0.85,0.53,1.49v2.51c0,0.16,0.07,0.25,0.22,0.25v0.45
				c-0.03,0.01-0.07,0.01-0.1,0.01c-0.04,0-0.07,0-0.09,0c-0.13,0-0.24-0.04-0.32-0.13c-0.08-0.09-0.12-0.2-0.14-0.32v-0.42
				c-0.24,0.31-0.54,0.55-0.91,0.71C261.96,66.24,261.56,66.32,261.14,66.32z M261.24,65.93c0.38,0,0.73-0.07,1.05-0.22
				c0.32-0.15,0.57-0.33,0.74-0.57c0.11-0.14,0.16-0.27,0.16-0.39v-0.91c-0.24-0.09-0.49-0.16-0.74-0.21
				c-0.26-0.05-0.52-0.07-0.8-0.07c-0.26,0-0.49,0.03-0.7,0.08c-0.21,0.06-0.39,0.13-0.54,0.23c-0.15,0.1-0.27,0.22-0.35,0.36
				s-0.12,0.3-0.12,0.47c0,0.17,0.03,0.33,0.1,0.48c0.06,0.15,0.16,0.28,0.28,0.39c0.12,0.11,0.26,0.19,0.42,0.26
				C260.88,65.9,261.05,65.93,261.24,65.93z"/>
			<path class="st0" d="M271.56,61.08h0.49l-2.23,5.14h-0.42l-1.16-2.72l-1.16,2.72h-0.42l-2.23-5.14h0.49l1.97,4.6l1.08-2.53
				l-0.87-2.06h0.43l0.71,1.7l0.7-1.7h0.43l-0.87,2.06l1.08,2.53L271.56,61.08z"/>
			<path class="st0" d="M274.15,66.32c-0.24,0-0.46-0.04-0.66-0.12c-0.2-0.08-0.38-0.19-0.54-0.34c-0.15-0.14-0.27-0.31-0.36-0.5
				c-0.09-0.19-0.13-0.4-0.13-0.63c0-0.22,0.05-0.43,0.16-0.61c0.11-0.18,0.25-0.34,0.44-0.48c0.19-0.14,0.41-0.24,0.68-0.32
				s0.55-0.11,0.87-0.11c0.28,0,0.55,0.03,0.84,0.07c0.28,0.05,0.53,0.12,0.76,0.2v-0.5c0-0.49-0.14-0.88-0.42-1.16
				c-0.28-0.29-0.65-0.43-1.13-0.43c-0.25,0-0.52,0.05-0.8,0.16c-0.28,0.11-0.57,0.26-0.85,0.45l-0.19-0.34
				c0.66-0.45,1.28-0.67,1.88-0.67c0.62,0,1.11,0.18,1.46,0.54c0.36,0.36,0.53,0.85,0.53,1.49v2.51c0,0.16,0.07,0.25,0.22,0.25v0.45
				c-0.03,0.01-0.07,0.01-0.1,0.01c-0.04,0-0.07,0-0.09,0c-0.13,0-0.24-0.04-0.32-0.13c-0.08-0.09-0.12-0.2-0.14-0.32v-0.42
				c-0.24,0.31-0.54,0.55-0.91,0.71C274.98,66.24,274.58,66.32,274.15,66.32z M274.25,65.93c0.38,0,0.73-0.07,1.05-0.22
				c0.32-0.15,0.57-0.33,0.74-0.57c0.11-0.14,0.16-0.27,0.16-0.39v-0.91c-0.24-0.09-0.49-0.16-0.74-0.21
				c-0.26-0.05-0.52-0.07-0.8-0.07c-0.26,0-0.49,0.03-0.7,0.08c-0.21,0.06-0.39,0.13-0.54,0.23c-0.15,0.1-0.27,0.22-0.35,0.36
				c-0.08,0.14-0.12,0.3-0.12,0.47c0,0.17,0.03,0.33,0.1,0.48c0.06,0.15,0.16,0.28,0.28,0.39c0.12,0.11,0.26,0.19,0.42,0.26
				C273.89,65.9,274.06,65.93,274.25,65.93z"/>
			<path class="st0" d="M278.19,59.92v-0.91h0.49v0.91H278.19z M278.19,66.22v-5.14h0.49v5.14H278.19z"/>
			<path class="st0" d="M280.24,59.92v-0.91h0.49v0.91H280.24z M280.24,66.22v-5.14h0.49v5.14H280.24z"/>
			<path class="st0" d="M282.18,66.22v-0.84h0.43v0.84H282.18z"/>
			<path class="st0" d="M286.11,66.3c-0.36,0-0.68-0.07-0.98-0.22c-0.3-0.15-0.55-0.35-0.77-0.59c-0.21-0.25-0.38-0.53-0.5-0.85
				c-0.12-0.32-0.18-0.64-0.18-0.98c0-0.35,0.06-0.69,0.17-1.01c0.12-0.32,0.28-0.61,0.49-0.85c0.21-0.25,0.46-0.44,0.76-0.59
				s0.62-0.22,0.98-0.22c0.45,0,0.84,0.12,1.17,0.35c0.33,0.23,0.61,0.52,0.85,0.85v-1.12h0.46v5.24c0,0.35-0.07,0.66-0.2,0.92
				c-0.13,0.26-0.31,0.48-0.53,0.66c-0.22,0.17-0.48,0.31-0.77,0.39c-0.29,0.09-0.6,0.13-0.92,0.13c-0.3,0-0.56-0.03-0.8-0.08
				c-0.24-0.06-0.45-0.14-0.63-0.24c-0.18-0.1-0.34-0.23-0.49-0.38c-0.14-0.15-0.27-0.31-0.37-0.49l0.34-0.23
				c0.2,0.35,0.48,0.61,0.83,0.77c0.35,0.16,0.72,0.24,1.12,0.24c0.26,0,0.51-0.04,0.75-0.11c0.23-0.07,0.44-0.18,0.61-0.32
				c0.18-0.14,0.31-0.32,0.42-0.53s0.15-0.46,0.15-0.74V65.2c-0.21,0.33-0.49,0.61-0.84,0.81C286.86,66.2,286.5,66.3,286.11,66.3z
				 M286.23,65.88c0.22,0,0.43-0.04,0.64-0.12c0.21-0.08,0.4-0.19,0.56-0.32c0.17-0.13,0.31-0.28,0.42-0.44
				c0.11-0.16,0.18-0.33,0.2-0.49v-1.69c-0.08-0.2-0.18-0.38-0.32-0.55c-0.13-0.17-0.28-0.31-0.45-0.43
				c-0.17-0.12-0.35-0.21-0.54-0.28c-0.19-0.07-0.39-0.1-0.59-0.1c-0.31,0-0.59,0.07-0.83,0.2c-0.24,0.13-0.45,0.3-0.62,0.51
				c-0.17,0.21-0.3,0.45-0.39,0.72c-0.09,0.27-0.13,0.54-0.13,0.81c0,0.3,0.05,0.58,0.16,0.84c0.11,0.26,0.25,0.5,0.43,0.7
				c0.18,0.2,0.4,0.36,0.65,0.48C285.68,65.82,285.95,65.88,286.23,65.88z"/>
			<path class="st0" d="M292.25,66.32c-0.36,0-0.7-0.07-1-0.21c-0.31-0.14-0.57-0.33-0.8-0.58c-0.23-0.24-0.4-0.53-0.52-0.85
				c-0.12-0.32-0.19-0.66-0.19-1.02c0-0.36,0.06-0.7,0.19-1.03c0.13-0.32,0.3-0.61,0.53-0.85c0.22-0.24,0.49-0.44,0.79-0.58
				c0.31-0.14,0.64-0.21,0.99-0.21c0.36,0,0.69,0.07,0.99,0.21c0.3,0.14,0.57,0.33,0.8,0.58c0.23,0.24,0.4,0.53,0.53,0.85
				c0.13,0.32,0.19,0.67,0.19,1.03c0,0.36-0.06,0.7-0.19,1.02c-0.13,0.32-0.3,0.61-0.53,0.85c-0.22,0.24-0.49,0.44-0.8,0.58
				C292.93,66.25,292.6,66.32,292.25,66.32z M290.23,63.68c0,0.3,0.05,0.59,0.16,0.85c0.1,0.27,0.25,0.5,0.43,0.7
				c0.18,0.2,0.4,0.35,0.64,0.47c0.24,0.12,0.5,0.17,0.78,0.17c0.28,0,0.54-0.06,0.78-0.17c0.24-0.12,0.46-0.27,0.64-0.48
				c0.18-0.2,0.33-0.44,0.43-0.71c0.11-0.27,0.16-0.55,0.16-0.86c0-0.3-0.05-0.59-0.16-0.85c-0.11-0.27-0.25-0.5-0.43-0.7
				c-0.18-0.2-0.4-0.36-0.64-0.48c-0.24-0.12-0.5-0.18-0.78-0.18c-0.28,0-0.54,0.06-0.78,0.18c-0.24,0.12-0.46,0.28-0.64,0.48
				c-0.18,0.2-0.33,0.44-0.43,0.72C290.28,63.09,290.23,63.38,290.23,63.68z"/>
			<path class="st0" d="M297.34,66.22l-2.15-5.14h0.52l1.9,4.64l1.91-4.64H300l-2.15,5.14H297.34z"/>
		</g>
	</g>
	<g>
		<path class="st0" d="M49.6,4.52v58.96H38.22V38.32H11.47v25.16H0V4.52h11.47v23.83h26.76V4.52H49.6z"/>
		<path class="st0" d="M61.9,63.48V4.52h11.47v58.96H61.9z"/>
		<path class="st0" d="M82.5,34.01c0-3.55,0.64-7.06,1.92-10.52s3.15-6.56,5.61-9.3c2.46-2.73,5.46-4.94,9.01-6.63
			c3.55-1.69,7.59-2.54,12.13-2.54c5.35,0,9.98,1.18,13.89,3.52c3.91,2.35,6.81,5.4,8.73,9.17l-8.69,5.98
			c-0.76-1.64-1.69-3.02-2.79-4.14c-1.09-1.12-2.27-2.01-3.52-2.66c-1.26-0.66-2.57-1.13-3.93-1.43c-1.37-0.3-2.7-0.45-4.01-0.45
			c-2.84,0-5.31,0.57-7.42,1.72c-2.1,1.15-3.85,2.63-5.24,4.46c-1.39,1.83-2.44,3.9-3.15,6.22c-0.71,2.32-1.07,4.63-1.07,6.92
			c0,2.57,0.41,5.04,1.23,7.41c0.82,2.37,1.98,4.46,3.48,6.27s3.3,3.25,5.41,4.34c2.1,1.09,4.41,1.64,6.92,1.64
			c1.31,0,2.68-0.16,4.1-0.49c1.42-0.33,2.77-0.85,4.06-1.56c1.28-0.71,2.47-1.62,3.56-2.74c1.09-1.12,1.97-2.47,2.62-4.05
			l9.26,5.32c-0.93,2.18-2.25,4.11-3.97,5.77c-1.72,1.67-3.66,3.07-5.82,4.22c-2.16,1.15-4.47,2.02-6.92,2.62
			c-2.46,0.6-4.86,0.9-7.21,0.9c-4.15,0-7.95-0.87-11.39-2.62c-3.44-1.75-6.41-4.03-8.89-6.84c-2.49-2.81-4.42-6-5.82-9.58
			C83.2,41.37,82.5,37.72,82.5,34.01z"/>
	</g>
	<rect x="146.66" class="st0" width="1.21" height="68.5"/>
</g>
</svg>
